<?xml version="1.0" encoding="UTF-8" standalone="no"?>
<!DOCTYPE svg PUBLIC "-//W3C//DTD SVG 1.1//EN"
 "http://www.w3.org/Graphics/SVG/1.1/DTD/svg11.dtd">
<!-- Generated by graphviz version 2.43.0 (0)
 -->
<!-- Title: G Pages: 1 -->
<svg width="1524pt" height="2160pt"
 viewBox="0.00 0.00 1524.20 2159.59" xmlns="http://www.w3.org/2000/svg" xmlns:xlink="http://www.w3.org/1999/xlink">
<g id="graph0" class="graph" transform="scale(1 1) rotate(0) translate(21.6 2137.99)">
<title>G</title>
<polygon fill="#111111" stroke="transparent" points="-21.6,21.6 -21.6,-2137.99 1502.6,-2137.99 1502.6,21.6 -21.6,21.6"/>
<!-- App.js -->
<g id="node1" class="node">
<title>App.js</title>
<path fill="none" stroke="#c6c5fe" d="M46.33,-1145.89C46.33,-1145.89 7.67,-1145.89 7.67,-1145.89 3.83,-1145.89 0,-1142.06 0,-1138.22 0,-1138.22 0,-1130.56 0,-1130.56 0,-1126.72 3.83,-1122.89 7.67,-1122.89 7.67,-1122.89 46.33,-1122.89 46.33,-1122.89 50.17,-1122.89 54,-1126.72 54,-1130.56 54,-1130.56 54,-1138.22 54,-1138.22 54,-1142.06 50.17,-1145.89 46.33,-1145.89"/>
<text text-anchor="middle" x="27" y="-1130.69" font-family="Arial" font-size="14.00" fill="#c6c5fe">App.js</text>
</g>
<!-- components/context/DataContext.js -->
<g id="node2" class="node">
<title>components/context/DataContext.js</title>
<path fill="none" stroke="#cfffac" d="M1201.33,-1185.89C1201.33,-1185.89 986.67,-1185.89 986.67,-1185.89 982.83,-1185.89 979,-1182.06 979,-1178.22 979,-1178.22 979,-1170.56 979,-1170.56 979,-1166.72 982.83,-1162.89 986.67,-1162.89 986.67,-1162.89 1201.33,-1162.89 1201.33,-1162.89 1205.17,-1162.89 1209,-1166.72 1209,-1170.56 1209,-1170.56 1209,-1178.22 1209,-1178.22 1209,-1182.06 1205.17,-1185.89 1201.33,-1185.89"/>
<text text-anchor="middle" x="1094" y="-1170.69" font-family="Arial" font-size="14.00" fill="#cfffac">components/context/DataContext.js</text>
</g>
<!-- App.js&#45;&gt;components/context/DataContext.js -->
<g id="edge1" class="edge">
<title>App.js&#45;&gt;components/context/DataContext.js</title>
<path fill="none" stroke="#757575" d="M54.13,-1144.69C65.04,-1148.5 77.95,-1152.37 90,-1154.39 255.24,-1182.07 738.6,-1179.44 968.6,-1176.43"/>
<polygon fill="#757575" stroke="#757575" points="968.74,-1179.92 978.69,-1176.29 968.64,-1172.92 968.74,-1179.92"/>
</g>
<!-- components/context/FlashContext.js -->
<g id="node3" class="node">
<title>components/context/FlashContext.js</title>
<path fill="none" stroke="#cfffac" d="M1473.33,-1029.89C1473.33,-1029.89 1253.67,-1029.89 1253.67,-1029.89 1249.83,-1029.89 1246,-1026.06 1246,-1022.22 1246,-1022.22 1246,-1014.56 1246,-1014.56 1246,-1010.72 1249.83,-1006.89 1253.67,-1006.89 1253.67,-1006.89 1473.33,-1006.89 1473.33,-1006.89 1477.17,-1006.89 1481,-1010.72 1481,-1014.56 1481,-1014.56 1481,-1022.22 1481,-1022.22 1481,-1026.06 1477.17,-1029.89 1473.33,-1029.89"/>
<text text-anchor="middle" x="1363.5" y="-1014.69" font-family="Arial" font-size="14.00" fill="#cfffac">components/context/FlashContext.js</text>
</g>
<!-- App.js&#45;&gt;components/context/FlashContext.js -->
<g id="edge2" class="edge">
<title>App.js&#45;&gt;components/context/FlashContext.js</title>
<path fill="none" stroke="#757575" d="M28.38,-1146.13C31.32,-1234.87 51.44,-1798.34 90,-1862.39 197.55,-2041.05 275.97,-2116.39 484.5,-2116.39 484.5,-2116.39 484.5,-2116.39 796,-2116.39 880.15,-2116.39 1181.3,-1947.38 1210,-1907.39 1314.79,-1761.34 1354.28,-1162.26 1361.31,-1040.17"/>
<polygon fill="#757575" stroke="#757575" points="1364.81,-1040.34 1361.88,-1030.16 1357.82,-1039.95 1364.81,-1040.34"/>
</g>
<!-- components/context/SocketContext.js -->
<g id="node4" class="node">
<title>components/context/SocketContext.js</title>
<path fill="none" stroke="#c6c5fe" d="M908.83,-1145.89C908.83,-1145.89 681.17,-1145.89 681.17,-1145.89 677.33,-1145.89 673.5,-1142.06 673.5,-1138.22 673.5,-1138.22 673.5,-1130.56 673.5,-1130.56 673.5,-1126.72 677.33,-1122.89 681.17,-1122.89 681.17,-1122.89 908.83,-1122.89 908.83,-1122.89 912.67,-1122.89 916.5,-1126.72 916.5,-1130.56 916.5,-1130.56 916.5,-1138.22 916.5,-1138.22 916.5,-1142.06 912.67,-1145.89 908.83,-1145.89"/>
<text text-anchor="middle" x="795" y="-1130.69" font-family="Arial" font-size="14.00" fill="#c6c5fe">components/context/SocketContext.js</text>
</g>
<!-- App.js&#45;&gt;components/context/SocketContext.js -->
<g id="edge3" class="edge">
<title>App.js&#45;&gt;components/context/SocketContext.js</title>
<path fill="none" stroke="#757575" d="M54.06,-1123.45C64.96,-1119.43 77.89,-1115.38 90,-1113.39 196.46,-1095.85 490.72,-1112.47 663.25,-1124.49"/>
<polygon fill="#757575" stroke="#757575" points="663.19,-1128 673.41,-1125.21 663.68,-1121.01 663.19,-1128"/>
</g>
<!-- components/context/UiContext.js -->
<g id="node5" class="node">
<title>components/context/UiContext.js</title>
<path fill="none" stroke="#cfffac" d="M1193.83,-1573.89C1193.83,-1573.89 994.17,-1573.89 994.17,-1573.89 990.33,-1573.89 986.5,-1570.06 986.5,-1566.22 986.5,-1566.22 986.5,-1558.56 986.5,-1558.56 986.5,-1554.72 990.33,-1550.89 994.17,-1550.89 994.17,-1550.89 1193.83,-1550.89 1193.83,-1550.89 1197.67,-1550.89 1201.5,-1554.72 1201.5,-1558.56 1201.5,-1558.56 1201.5,-1566.22 1201.5,-1566.22 1201.5,-1570.06 1197.67,-1573.89 1193.83,-1573.89"/>
<text text-anchor="middle" x="1094" y="-1558.69" font-family="Arial" font-size="14.00" fill="#cfffac">components/context/UiContext.js</text>
</g>
<!-- App.js&#45;&gt;components/context/UiContext.js -->
<g id="edge4" class="edge">
<title>App.js&#45;&gt;components/context/UiContext.js</title>
<path fill="none" stroke="#757575" d="M28.5,-1146.13C32,-1227.01 53.91,-1699.77 90,-1751.39 247.86,-1977.19 379.46,-1959.83 648,-2021.39 775.36,-2050.58 843.91,-2107.71 942,-2021.39 989.26,-1979.8 956.38,-1799.52 978,-1740.39 1001.21,-1676.9 1050.34,-1612.86 1076.23,-1581.76"/>
<polygon fill="#757575" stroke="#757575" points="1079.1,-1583.79 1082.87,-1573.89 1073.75,-1579.27 1079.1,-1583.79"/>
</g>
<!-- components/layout/ChannelIndex.js -->
<g id="node6" class="node">
<title>components/layout/ChannelIndex.js</title>
<path fill="none" stroke="#cfffac" d="M314.33,-1263.89C314.33,-1263.89 98.67,-1263.89 98.67,-1263.89 94.83,-1263.89 91,-1260.06 91,-1256.22 91,-1256.22 91,-1248.56 91,-1248.56 91,-1244.72 94.83,-1240.89 98.67,-1240.89 98.67,-1240.89 314.33,-1240.89 314.33,-1240.89 318.17,-1240.89 322,-1244.72 322,-1248.56 322,-1248.56 322,-1256.22 322,-1256.22 322,-1260.06 318.17,-1263.89 314.33,-1263.89"/>
<text text-anchor="middle" x="206.5" y="-1248.69" font-family="Arial" font-size="14.00" fill="#cfffac">components/layout/ChannelIndex.js</text>
</g>
<!-- App.js&#45;&gt;components/layout/ChannelIndex.js -->
<g id="edge5" class="edge">
<title>App.js&#45;&gt;components/layout/ChannelIndex.js</title>
<path fill="none" stroke="#757575" d="M32.47,-1146.09C40.68,-1165.92 60.11,-1205.95 90,-1226.39 96.18,-1230.62 102.95,-1234.17 110,-1237.15"/>
<polygon fill="#757575" stroke="#757575" points="109.18,-1240.58 119.77,-1240.87 111.67,-1234.04 109.18,-1240.58"/>
</g>
<!-- components/layout/ChannelsBar.js -->
<g id="node7" class="node">
<title>components/layout/ChannelsBar.js</title>
<path fill="none" stroke="#c6c5fe" d="M590.33,-1853.89C590.33,-1853.89 380.67,-1853.89 380.67,-1853.89 376.83,-1853.89 373,-1850.06 373,-1846.22 373,-1846.22 373,-1838.56 373,-1838.56 373,-1834.72 376.83,-1830.89 380.67,-1830.89 380.67,-1830.89 590.33,-1830.89 590.33,-1830.89 594.17,-1830.89 598,-1834.72 598,-1838.56 598,-1838.56 598,-1846.22 598,-1846.22 598,-1850.06 594.17,-1853.89 590.33,-1853.89"/>
<text text-anchor="middle" x="485.5" y="-1838.69" font-family="Arial" font-size="14.00" fill="#c6c5fe">components/layout/ChannelsBar.js</text>
</g>
<!-- App.js&#45;&gt;components/layout/ChannelsBar.js -->
<g id="edge6" class="edge">
<title>App.js&#45;&gt;components/layout/ChannelsBar.js</title>
<path fill="none" stroke="#757575" d="M27.96,-1146.02C27.95,-1215.44 30.78,-1575.27 90,-1664.39 157.2,-1765.53 296.78,-1809.91 390.57,-1828.89"/>
<polygon fill="#757575" stroke="#757575" points="390.14,-1832.37 400.63,-1830.86 391.49,-1825.5 390.14,-1832.37"/>
</g>
<!-- components/layout/ChatWindow.js -->
<g id="node8" class="node">
<title>components/layout/ChatWindow.js</title>
<path fill="none" stroke="#c6c5fe" d="M310.83,-1654.89C310.83,-1654.89 102.17,-1654.89 102.17,-1654.89 98.33,-1654.89 94.5,-1651.06 94.5,-1647.22 94.5,-1647.22 94.5,-1639.56 94.5,-1639.56 94.5,-1635.72 98.33,-1631.89 102.17,-1631.89 102.17,-1631.89 310.83,-1631.89 310.83,-1631.89 314.67,-1631.89 318.5,-1635.72 318.5,-1639.56 318.5,-1639.56 318.5,-1647.22 318.5,-1647.22 318.5,-1651.06 314.67,-1654.89 310.83,-1654.89"/>
<text text-anchor="middle" x="206.5" y="-1639.69" font-family="Arial" font-size="14.00" fill="#c6c5fe">components/layout/ChatWindow.js</text>
</g>
<!-- App.js&#45;&gt;components/layout/ChatWindow.js -->
<g id="edge7" class="edge">
<title>App.js&#45;&gt;components/layout/ChatWindow.js</title>
<path fill="none" stroke="#757575" d="M32.04,-1145.98C54.88,-1211.46 167.83,-1535.35 198.05,-1622.03"/>
<polygon fill="#757575" stroke="#757575" points="194.79,-1623.31 201.39,-1631.6 201.4,-1621 194.79,-1623.31"/>
</g>
<!-- components/layout/HomeWindow.js -->
<g id="node9" class="node">
<title>components/layout/HomeWindow.js</title>
<path fill="none" stroke="#cfffac" d="M315.33,-1145.89C315.33,-1145.89 97.67,-1145.89 97.67,-1145.89 93.83,-1145.89 90,-1142.06 90,-1138.22 90,-1138.22 90,-1130.56 90,-1130.56 90,-1126.72 93.83,-1122.89 97.67,-1122.89 97.67,-1122.89 315.33,-1122.89 315.33,-1122.89 319.17,-1122.89 323,-1126.72 323,-1130.56 323,-1130.56 323,-1138.22 323,-1138.22 323,-1142.06 319.17,-1145.89 315.33,-1145.89"/>
<text text-anchor="middle" x="206.5" y="-1130.69" font-family="Arial" font-size="14.00" fill="#cfffac">components/layout/HomeWindow.js</text>
</g>
<!-- App.js&#45;&gt;components/layout/HomeWindow.js -->
<g id="edge8" class="edge">
<title>App.js&#45;&gt;components/layout/HomeWindow.js</title>
<path fill="none" stroke="#757575" d="M54.19,-1134.39C61.71,-1134.39 70.44,-1134.39 79.84,-1134.39"/>
<polygon fill="#757575" stroke="#757575" points="79.87,-1137.89 89.87,-1134.39 79.87,-1130.89 79.87,-1137.89"/>
</g>
<!-- pages/GroupSettings.js -->
<g id="node10" class="node">
<title>pages/GroupSettings.js</title>
<path fill="none" stroke="#c6c5fe" d="M556.83,-1297.89C556.83,-1297.89 414.17,-1297.89 414.17,-1297.89 410.33,-1297.89 406.5,-1294.06 406.5,-1290.22 406.5,-1290.22 406.5,-1282.56 406.5,-1282.56 406.5,-1278.72 410.33,-1274.89 414.17,-1274.89 414.17,-1274.89 556.83,-1274.89 556.83,-1274.89 560.67,-1274.89 564.5,-1278.72 564.5,-1282.56 564.5,-1282.56 564.5,-1290.22 564.5,-1290.22 564.5,-1294.06 560.67,-1297.89 556.83,-1297.89"/>
<text text-anchor="middle" x="485.5" y="-1282.69" font-family="Arial" font-size="14.00" fill="#c6c5fe">pages/GroupSettings.js</text>
</g>
<!-- App.js&#45;&gt;pages/GroupSettings.js -->
<g id="edge9" class="edge">
<title>App.js&#45;&gt;pages/GroupSettings.js</title>
<path fill="none" stroke="#757575" d="M37.69,-1145.9C48.93,-1158.44 68.66,-1178.09 90,-1188.39 184.84,-1234.15 229.1,-1183.73 323,-1231.39 342.62,-1241.35 339.29,-1255.59 359,-1265.39 370.59,-1271.15 383.44,-1275.37 396.38,-1278.46"/>
<polygon fill="#757575" stroke="#757575" points="395.75,-1281.91 406.26,-1280.61 397.23,-1275.06 395.75,-1281.91"/>
</g>
<!-- pages/LoginPage.js -->
<g id="node11" class="node">
<title>pages/LoginPage.js</title>
<path fill="none" stroke="#c6c5fe" d="M854.83,-637.89C854.83,-637.89 735.17,-637.89 735.17,-637.89 731.33,-637.89 727.5,-634.06 727.5,-630.22 727.5,-630.22 727.5,-622.56 727.5,-622.56 727.5,-618.72 731.33,-614.89 735.17,-614.89 735.17,-614.89 854.83,-614.89 854.83,-614.89 858.67,-614.89 862.5,-618.72 862.5,-622.56 862.5,-622.56 862.5,-630.22 862.5,-630.22 862.5,-634.06 858.67,-637.89 854.83,-637.89"/>
<text text-anchor="middle" x="795" y="-622.69" font-family="Arial" font-size="14.00" fill="#c6c5fe">pages/LoginPage.js</text>
</g>
<!-- App.js&#45;&gt;pages/LoginPage.js -->
<g id="edge10" class="edge">
<title>App.js&#45;&gt;pages/LoginPage.js</title>
<path fill="none" stroke="#757575" d="M27.77,-1122.75C27.61,-1084.33 31.82,-959.55 90,-882.39 241.97,-680.84 568.18,-637.75 717.06,-628.7"/>
<polygon fill="#757575" stroke="#757575" points="717.69,-632.17 727.47,-628.11 717.29,-625.18 717.69,-632.17"/>
</g>
<!-- pages/MainWindow.js -->
<g id="node12" class="node">
<title>pages/MainWindow.js</title>
<path fill="none" stroke="#c6c5fe" d="M273.33,-914.89C273.33,-914.89 139.67,-914.89 139.67,-914.89 135.83,-914.89 132,-911.06 132,-907.22 132,-907.22 132,-899.56 132,-899.56 132,-895.72 135.83,-891.89 139.67,-891.89 139.67,-891.89 273.33,-891.89 273.33,-891.89 277.17,-891.89 281,-895.72 281,-899.56 281,-899.56 281,-907.22 281,-907.22 281,-911.06 277.17,-914.89 273.33,-914.89"/>
<text text-anchor="middle" x="206.5" y="-899.69" font-family="Arial" font-size="14.00" fill="#c6c5fe">pages/MainWindow.js</text>
</g>
<!-- App.js&#45;&gt;pages/MainWindow.js -->
<g id="edge11" class="edge">
<title>App.js&#45;&gt;pages/MainWindow.js</title>
<path fill="none" stroke="#757575" d="M33.26,-1122.78C42.97,-1101.91 65.03,-1057.08 90,-1023.39 119.08,-984.15 160.07,-944.45 184.59,-921.98"/>
<polygon fill="#757575" stroke="#757575" points="187.18,-924.36 192.23,-915.05 182.48,-919.17 187.18,-924.36"/>
</g>
<!-- pages/NewChannelPage.js -->
<g id="node13" class="node">
<title>pages/NewChannelPage.js</title>
<path fill="none" stroke="#c6c5fe" d="M567.33,-1029.89C567.33,-1029.89 403.67,-1029.89 403.67,-1029.89 399.83,-1029.89 396,-1026.06 396,-1022.22 396,-1022.22 396,-1014.56 396,-1014.56 396,-1010.72 399.83,-1006.89 403.67,-1006.89 403.67,-1006.89 567.33,-1006.89 567.33,-1006.89 571.17,-1006.89 575,-1010.72 575,-1014.56 575,-1014.56 575,-1022.22 575,-1022.22 575,-1026.06 571.17,-1029.89 567.33,-1029.89"/>
<text text-anchor="middle" x="485.5" y="-1014.69" font-family="Arial" font-size="14.00" fill="#c6c5fe">pages/NewChannelPage.js</text>
</g>
<!-- App.js&#45;&gt;pages/NewChannelPage.js -->
<g id="edge12" class="edge">
<title>App.js&#45;&gt;pages/NewChannelPage.js</title>
<path fill="none" stroke="#757575" d="M37.64,-1122.77C48.83,-1110.13 68.52,-1090.4 90,-1080.39 184.1,-1036.52 303.11,-1022.76 385.68,-1018.89"/>
<polygon fill="#757575" stroke="#757575" points="385.97,-1022.39 395.81,-1018.46 385.67,-1015.39 385.97,-1022.39"/>
</g>
<!-- pages/NewGroupPage.js -->
<g id="node14" class="node">
<title>pages/NewGroupPage.js</title>
<path fill="none" stroke="#c6c5fe" d="M561.33,-241.89C561.33,-241.89 409.67,-241.89 409.67,-241.89 405.83,-241.89 402,-238.06 402,-234.22 402,-234.22 402,-226.56 402,-226.56 402,-222.72 405.83,-218.89 409.67,-218.89 409.67,-218.89 561.33,-218.89 561.33,-218.89 565.17,-218.89 569,-222.72 569,-226.56 569,-226.56 569,-234.22 569,-234.22 569,-238.06 565.17,-241.89 561.33,-241.89"/>
<text text-anchor="middle" x="485.5" y="-226.69" font-family="Arial" font-size="14.00" fill="#c6c5fe">pages/NewGroupPage.js</text>
</g>
<!-- App.js&#45;&gt;pages/NewGroupPage.js -->
<g id="edge13" class="edge">
<title>App.js&#45;&gt;pages/NewGroupPage.js</title>
<path fill="none" stroke="#757575" d="M27.77,-1122.87C26.39,-1045.32 21.57,-599.2 90,-486.39 171.26,-352.43 352.37,-275.45 437.97,-245.3"/>
<polygon fill="#757575" stroke="#757575" points="439.38,-248.52 447.68,-241.94 437.08,-241.91 439.38,-248.52"/>
</g>
<!-- pages/PageNotFound.js -->
<g id="node15" class="node">
<title>pages/PageNotFound.js</title>
<path fill="none" stroke="#c6c5fe" d="M279.33,-79.89C279.33,-79.89 133.67,-79.89 133.67,-79.89 129.83,-79.89 126,-76.06 126,-72.22 126,-72.22 126,-64.56 126,-64.56 126,-60.72 129.83,-56.89 133.67,-56.89 133.67,-56.89 279.33,-56.89 279.33,-56.89 283.17,-56.89 287,-60.72 287,-64.56 287,-64.56 287,-72.22 287,-72.22 287,-76.06 283.17,-79.89 279.33,-79.89"/>
<text text-anchor="middle" x="206.5" y="-64.69" font-family="Arial" font-size="14.00" fill="#c6c5fe">pages/PageNotFound.js</text>
</g>
<!-- App.js&#45;&gt;pages/PageNotFound.js -->
<g id="edge14" class="edge">
<title>App.js&#45;&gt;pages/PageNotFound.js</title>
<path fill="none" stroke="#757575" d="M28.43,-1122.88C31.66,-1038.03 53.06,-508.27 90,-352.39 114.41,-249.37 170.62,-134.99 194.47,-89.09"/>
<polygon fill="#757575" stroke="#757575" points="197.63,-90.61 199.17,-80.13 191.43,-87.36 197.63,-90.61"/>
</g>
<!-- pages/UserPage.js -->
<g id="node16" class="node">
<title>pages/UserPage.js</title>
<path fill="none" stroke="#c6c5fe" d="M543.33,-475.89C543.33,-475.89 427.67,-475.89 427.67,-475.89 423.83,-475.89 420,-472.06 420,-468.22 420,-468.22 420,-460.56 420,-460.56 420,-456.72 423.83,-452.89 427.67,-452.89 427.67,-452.89 543.33,-452.89 543.33,-452.89 547.17,-452.89 551,-456.72 551,-460.56 551,-460.56 551,-468.22 551,-468.22 551,-472.06 547.17,-475.89 543.33,-475.89"/>
<text text-anchor="middle" x="485.5" y="-460.69" font-family="Arial" font-size="14.00" fill="#c6c5fe">pages/UserPage.js</text>
</g>
<!-- App.js&#45;&gt;pages/UserPage.js -->
<g id="edge15" class="edge">
<title>App.js&#45;&gt;pages/UserPage.js</title>
<path fill="none" stroke="#757575" d="M27.85,-1122.6C27.21,-1053.77 27.12,-704.21 90,-622.39 167.34,-521.74 318.91,-485.01 410.01,-471.75"/>
<polygon fill="#757575" stroke="#757575" points="410.57,-475.2 419.99,-470.35 409.6,-468.27 410.57,-475.2"/>
</g>
<!-- components/context/SocketContext.js&#45;&gt;components/context/DataContext.js -->
<g id="edge25" class="edge">
<title>components/context/SocketContext.js&#45;&gt;components/context/DataContext.js</title>
<path fill="none" stroke="#757575" d="M881.51,-1145.9C917.69,-1150.78 960,-1156.48 997.23,-1161.49"/>
<polygon fill="#757575" stroke="#757575" points="997.21,-1165.02 1007.58,-1162.88 998.14,-1158.08 997.21,-1165.02"/>
</g>
<!-- components/context/SocketContext.js&#45;&gt;components/context/FlashContext.js -->
<g id="edge26" class="edge">
<title>components/context/SocketContext.js&#45;&gt;components/context/FlashContext.js</title>
<path fill="none" stroke="#757575" d="M852.39,-1122.84C957.66,-1101.29 1183.57,-1055.03 1296.05,-1032"/>
<polygon fill="#757575" stroke="#757575" points="1296.82,-1035.41 1305.92,-1029.97 1295.42,-1028.55 1296.82,-1035.41"/>
</g>
<!-- components/context/SocketContext.js&#45;&gt;components/context/UiContext.js -->
<g id="edge27" class="edge">
<title>components/context/SocketContext.js&#45;&gt;components/context/UiContext.js</title>
<path fill="none" stroke="#757575" d="M804.37,-1146.33C828.63,-1181.37 899.93,-1287.59 942,-1384.39 964.2,-1435.46 942.23,-1461.71 978,-1504.39 994.72,-1524.33 1020,-1538.13 1042.61,-1547.25"/>
<polygon fill="#757575" stroke="#757575" points="1041.51,-1550.57 1052.1,-1550.87 1044,-1544.03 1041.51,-1550.57"/>
</g>
<!-- utils/axios.js -->
<g id="node18" class="node">
<title>utils/axios.js</title>
<path fill="none" stroke="#c6c5fe" d="M1130.83,-989.89C1130.83,-989.89 1057.17,-989.89 1057.17,-989.89 1053.33,-989.89 1049.5,-986.06 1049.5,-982.22 1049.5,-982.22 1049.5,-974.56 1049.5,-974.56 1049.5,-970.72 1053.33,-966.89 1057.17,-966.89 1057.17,-966.89 1130.83,-966.89 1130.83,-966.89 1134.67,-966.89 1138.5,-970.72 1138.5,-974.56 1138.5,-974.56 1138.5,-982.22 1138.5,-982.22 1138.5,-986.06 1134.67,-989.89 1130.83,-989.89"/>
<text text-anchor="middle" x="1094" y="-974.69" font-family="Arial" font-size="14.00" fill="#c6c5fe">utils/axios.js</text>
</g>
<!-- components/context/SocketContext.js&#45;&gt;utils/axios.js -->
<g id="edge28" class="edge">
<title>components/context/SocketContext.js&#45;&gt;utils/axios.js</title>
<path fill="none" stroke="#757575" d="M818.32,-1122.66C870.7,-1095.15 1001.57,-1026.41 1061.79,-994.78"/>
<polygon fill="#757575" stroke="#757575" points="1063.6,-997.79 1070.82,-990.04 1060.34,-991.59 1063.6,-997.79"/>
</g>
<!-- utils/localFallback.js -->
<g id="node28" class="node">
<title>utils/localFallback.js</title>
<path fill="none" stroke="#cfffac" d="M1154.33,-1300.89C1154.33,-1300.89 1033.67,-1300.89 1033.67,-1300.89 1029.83,-1300.89 1026,-1297.06 1026,-1293.22 1026,-1293.22 1026,-1285.56 1026,-1285.56 1026,-1281.72 1029.83,-1277.89 1033.67,-1277.89 1033.67,-1277.89 1154.33,-1277.89 1154.33,-1277.89 1158.17,-1277.89 1162,-1281.72 1162,-1285.56 1162,-1285.56 1162,-1293.22 1162,-1293.22 1162,-1297.06 1158.17,-1300.89 1154.33,-1300.89"/>
<text text-anchor="middle" x="1094" y="-1285.69" font-family="Arial" font-size="14.00" fill="#cfffac">utils/localFallback.js</text>
</g>
<!-- components/context/SocketContext.js&#45;&gt;utils/localFallback.js -->
<g id="edge29" class="edge">
<title>components/context/SocketContext.js&#45;&gt;utils/localFallback.js</title>
<path fill="none" stroke="#757575" d="M818.32,-1146.04C870.7,-1173.37 1001.57,-1241.67 1061.79,-1273.1"/>
<polygon fill="#757575" stroke="#757575" points="1060.34,-1276.29 1070.82,-1277.81 1063.58,-1270.09 1060.34,-1276.29"/>
</g>
<!-- components/layout/ChannelsBar.js&#45;&gt;components/context/DataContext.js -->
<g id="edge41" class="edge">
<title>components/layout/ChannelsBar.js&#45;&gt;components/context/DataContext.js</title>
<path fill="none" stroke="#757575" d="M539.18,-1830.81C565.38,-1822.22 595.02,-1807.65 612,-1783.39 663.05,-1710.45 586.92,-1449.16 648,-1384.39 738.65,-1288.27 835.07,-1418 942,-1340.39 970.95,-1319.37 955.65,-1296.33 978,-1268.39 1003.21,-1236.86 1040.59,-1208.74 1065.83,-1191.65"/>
<polygon fill="#757575" stroke="#757575" points="1067.82,-1194.53 1074.21,-1186.08 1063.95,-1188.7 1067.82,-1194.53"/>
</g>
<!-- components/layout/ChannelsBar.js&#45;&gt;components/context/UiContext.js -->
<g id="edge42" class="edge">
<title>components/layout/ChannelsBar.js&#45;&gt;components/context/UiContext.js</title>
<path fill="none" stroke="#757575" d="M512.98,-1853.96C588.69,-1885.07 809.18,-1961.68 942,-1862.39 987.28,-1828.54 954.42,-1791.77 978,-1740.39 1006.2,-1678.95 1053.15,-1614.02 1077.42,-1582.25"/>
<polygon fill="#757575" stroke="#757575" points="1080.29,-1584.26 1083.63,-1574.2 1074.75,-1579.98 1080.29,-1584.26"/>
</g>
<!-- components/channels/ChannelBadge.js -->
<g id="node17" class="node">
<title>components/channels/ChannelBadge.js</title>
<path fill="none" stroke="#c6c5fe" d="M914.83,-1772.89C914.83,-1772.89 675.17,-1772.89 675.17,-1772.89 671.33,-1772.89 667.5,-1769.06 667.5,-1765.22 667.5,-1765.22 667.5,-1757.56 667.5,-1757.56 667.5,-1753.72 671.33,-1749.89 675.17,-1749.89 675.17,-1749.89 914.83,-1749.89 914.83,-1749.89 918.67,-1749.89 922.5,-1753.72 922.5,-1757.56 922.5,-1757.56 922.5,-1765.22 922.5,-1765.22 922.5,-1769.06 918.67,-1772.89 914.83,-1772.89"/>
<text text-anchor="middle" x="795" y="-1757.69" font-family="Arial" font-size="14.00" fill="#c6c5fe">components/channels/ChannelBadge.js</text>
</g>
<!-- components/layout/ChannelsBar.js&#45;&gt;components/channels/ChannelBadge.js -->
<g id="edge37" class="edge">
<title>components/layout/ChannelsBar.js&#45;&gt;components/channels/ChannelBadge.js</title>
<path fill="none" stroke="#757575" d="M530.23,-1830.87C585.4,-1816.34 680.27,-1791.35 739.94,-1775.63"/>
<polygon fill="#757575" stroke="#757575" points="741.14,-1778.93 749.92,-1773 739.36,-1772.16 741.14,-1778.93"/>
</g>
<!-- components/channels/GroupBanner.js -->
<g id="node19" class="node">
<title>components/channels/GroupBanner.js</title>
<path fill="none" stroke="#c6c5fe" d="M910.83,-1852.89C910.83,-1852.89 679.17,-1852.89 679.17,-1852.89 675.33,-1852.89 671.5,-1849.06 671.5,-1845.22 671.5,-1845.22 671.5,-1837.56 671.5,-1837.56 671.5,-1833.72 675.33,-1829.89 679.17,-1829.89 679.17,-1829.89 910.83,-1829.89 910.83,-1829.89 914.67,-1829.89 918.5,-1833.72 918.5,-1837.56 918.5,-1837.56 918.5,-1845.22 918.5,-1845.22 918.5,-1849.06 914.67,-1852.89 910.83,-1852.89"/>
<text text-anchor="middle" x="795" y="-1837.69" font-family="Arial" font-size="14.00" fill="#c6c5fe">components/channels/GroupBanner.js</text>
</g>
<!-- components/layout/ChannelsBar.js&#45;&gt;components/channels/GroupBanner.js -->
<g id="edge38" class="edge">
<title>components/layout/ChannelsBar.js&#45;&gt;components/channels/GroupBanner.js</title>
<path fill="none" stroke="#757575" d="M598.38,-1842.03C618.75,-1841.96 640.18,-1841.89 661.08,-1841.82"/>
<polygon fill="#757575" stroke="#757575" points="661.3,-1845.32 671.29,-1841.79 661.28,-1838.32 661.3,-1845.32"/>
</g>
<!-- components/channels/MemberStatusBadge.js -->
<g id="node21" class="node">
<title>components/channels/MemberStatusBadge.js</title>
<path fill="none" stroke="#cfffac" d="M934.33,-2011.89C934.33,-2011.89 655.67,-2011.89 655.67,-2011.89 651.83,-2011.89 648,-2008.06 648,-2004.22 648,-2004.22 648,-1996.56 648,-1996.56 648,-1992.72 651.83,-1988.89 655.67,-1988.89 655.67,-1988.89 934.33,-1988.89 934.33,-1988.89 938.17,-1988.89 942,-1992.72 942,-1996.56 942,-1996.56 942,-2004.22 942,-2004.22 942,-2008.06 938.17,-2011.89 934.33,-2011.89"/>
<text text-anchor="middle" x="795" y="-1996.69" font-family="Arial" font-size="14.00" fill="#cfffac">components/channels/MemberStatusBadge.js</text>
</g>
<!-- components/layout/ChannelsBar.js&#45;&gt;components/channels/MemberStatusBadge.js -->
<g id="edge39" class="edge">
<title>components/layout/ChannelsBar.js&#45;&gt;components/channels/MemberStatusBadge.js</title>
<path fill="none" stroke="#757575" d="M495.95,-1854.15C518.77,-1881.61 580.03,-1949.9 648,-1980.39 652.37,-1982.35 656.87,-1984.13 661.48,-1985.74"/>
<polygon fill="#757575" stroke="#757575" points="660.46,-1989.09 671.05,-1988.83 662.61,-1982.43 660.46,-1989.09"/>
</g>
<!-- components/channels/NewChannelButton.js -->
<g id="node22" class="node">
<title>components/channels/NewChannelButton.js</title>
<path fill="none" stroke="#cfffac" d="M928.33,-1970.89C928.33,-1970.89 661.67,-1970.89 661.67,-1970.89 657.83,-1970.89 654,-1967.06 654,-1963.22 654,-1963.22 654,-1955.56 654,-1955.56 654,-1951.72 657.83,-1947.89 661.67,-1947.89 661.67,-1947.89 928.33,-1947.89 928.33,-1947.89 932.17,-1947.89 936,-1951.72 936,-1955.56 936,-1955.56 936,-1963.22 936,-1963.22 936,-1967.06 932.17,-1970.89 928.33,-1970.89"/>
<text text-anchor="middle" x="795" y="-1955.69" font-family="Arial" font-size="14.00" fill="#cfffac">components/channels/NewChannelButton.js</text>
</g>
<!-- components/layout/ChannelsBar.js&#45;&gt;components/channels/NewChannelButton.js -->
<g id="edge40" class="edge">
<title>components/layout/ChannelsBar.js&#45;&gt;components/channels/NewChannelButton.js</title>
<path fill="none" stroke="#757575" d="M502.58,-1853.91C530.65,-1873.45 591.05,-1912.94 648,-1933.39 662.01,-1938.42 677.15,-1942.5 692.18,-1945.81"/>
<polygon fill="#757575" stroke="#757575" points="691.52,-1949.25 702.03,-1947.88 692.96,-1942.4 691.52,-1949.25"/>
</g>
<!-- components/ui/SkeletonLoaders.js -->
<g id="node38" class="node">
<title>components/ui/SkeletonLoaders.js</title>
<path fill="none" stroke="#cfffac" d="M899.33,-1613.89C899.33,-1613.89 690.67,-1613.89 690.67,-1613.89 686.83,-1613.89 683,-1610.06 683,-1606.22 683,-1606.22 683,-1598.56 683,-1598.56 683,-1594.72 686.83,-1590.89 690.67,-1590.89 690.67,-1590.89 899.33,-1590.89 899.33,-1590.89 903.17,-1590.89 907,-1594.72 907,-1598.56 907,-1598.56 907,-1606.22 907,-1606.22 907,-1610.06 903.17,-1613.89 899.33,-1613.89"/>
<text text-anchor="middle" x="795" y="-1598.69" font-family="Arial" font-size="14.00" fill="#cfffac">components/ui/SkeletonLoaders.js</text>
</g>
<!-- components/layout/ChannelsBar.js&#45;&gt;components/ui/SkeletonLoaders.js -->
<g id="edge43" class="edge">
<title>components/layout/ChannelsBar.js&#45;&gt;components/ui/SkeletonLoaders.js</title>
<path fill="none" stroke="#757575" d="M535.09,-1830.81C561.58,-1822.06 592.79,-1807.33 612,-1783.39 657.62,-1726.54 594.48,-1672.87 648,-1623.39 655.47,-1616.48 664.15,-1611.21 673.47,-1607.24"/>
<polygon fill="#757575" stroke="#757575" points="674.84,-1610.46 682.98,-1603.68 672.39,-1603.9 674.84,-1610.46"/>
</g>
<!-- components/layout/ChatWindow.js&#45;&gt;components/context/DataContext.js -->
<g id="edge49" class="edge">
<title>components/layout/ChatWindow.js&#45;&gt;components/context/DataContext.js</title>
<path fill="none" stroke="#757575" d="M220.52,-1631.86C271.37,-1587.41 462.88,-1425.5 648,-1340.39 770.83,-1283.92 817.14,-1314.22 942,-1262.39 988.98,-1242.88 1039.19,-1211.18 1068.25,-1191.63"/>
<polygon fill="#757575" stroke="#757575" points="1070.26,-1194.49 1076.56,-1185.97 1066.32,-1188.7 1070.26,-1194.49"/>
</g>
<!-- components/layout/ChatWindow.js&#45;&gt;components/context/UiContext.js -->
<g id="edge50" class="edge">
<title>components/layout/ChatWindow.js&#45;&gt;components/context/UiContext.js</title>
<path fill="none" stroke="#757575" d="M315.76,-1654.91C318.29,-1656.57 320.71,-1658.39 323,-1660.39 365.97,-1697.78 313.42,-1749.23 359,-1783.39 385.01,-1802.88 897.06,-1806.14 942,-1782.39 963.11,-1771.23 1048.15,-1635.36 1080.46,-1582.88"/>
<polygon fill="#757575" stroke="#757575" points="1083.6,-1584.46 1085.85,-1574.1 1077.64,-1580.79 1083.6,-1584.46"/>
</g>
<!-- components/chat/ChatBanner.js -->
<g id="node23" class="node">
<title>components/chat/ChatBanner.js</title>
<path fill="none" stroke="#cfffac" d="M891.83,-1654.89C891.83,-1654.89 698.17,-1654.89 698.17,-1654.89 694.33,-1654.89 690.5,-1651.06 690.5,-1647.22 690.5,-1647.22 690.5,-1639.56 690.5,-1639.56 690.5,-1635.72 694.33,-1631.89 698.17,-1631.89 698.17,-1631.89 891.83,-1631.89 891.83,-1631.89 895.67,-1631.89 899.5,-1635.72 899.5,-1639.56 899.5,-1639.56 899.5,-1647.22 899.5,-1647.22 899.5,-1651.06 895.67,-1654.89 891.83,-1654.89"/>
<text text-anchor="middle" x="795" y="-1639.69" font-family="Arial" font-size="14.00" fill="#cfffac">components/chat/ChatBanner.js</text>
</g>
<!-- components/layout/ChatWindow.js&#45;&gt;components/chat/ChatBanner.js -->
<g id="edge44" class="edge">
<title>components/layout/ChatWindow.js&#45;&gt;components/chat/ChatBanner.js</title>
<path fill="none" stroke="#757575" d="M318.51,-1643.39C421.99,-1643.39 575.65,-1643.39 680.07,-1643.39"/>
<polygon fill="#757575" stroke="#757575" points="680.34,-1646.89 690.34,-1643.39 680.34,-1639.89 680.34,-1646.89"/>
</g>
<!-- components/chat/ChatInputBox.js -->
<g id="node24" class="node">
<title>components/chat/ChatInputBox.js</title>
<path fill="none" stroke="#cfffac" d="M587.33,-1773.89C587.33,-1773.89 383.67,-1773.89 383.67,-1773.89 379.83,-1773.89 376,-1770.06 376,-1766.22 376,-1766.22 376,-1758.56 376,-1758.56 376,-1754.72 379.83,-1750.89 383.67,-1750.89 383.67,-1750.89 587.33,-1750.89 587.33,-1750.89 591.17,-1750.89 595,-1754.72 595,-1758.56 595,-1758.56 595,-1766.22 595,-1766.22 595,-1770.06 591.17,-1773.89 587.33,-1773.89"/>
<text text-anchor="middle" x="485.5" y="-1758.69" font-family="Arial" font-size="14.00" fill="#cfffac">components/chat/ChatInputBox.js</text>
</g>
<!-- components/layout/ChatWindow.js&#45;&gt;components/chat/ChatInputBox.js -->
<g id="edge45" class="edge">
<title>components/layout/ChatWindow.js&#45;&gt;components/chat/ChatInputBox.js</title>
<path fill="none" stroke="#757575" d="M221.01,-1655.11C246.24,-1676.3 303.01,-1720.78 359,-1742.39 364.54,-1744.53 370.3,-1746.44 376.17,-1748.14"/>
<polygon fill="#757575" stroke="#757575" points="375.58,-1751.61 386.15,-1750.82 377.4,-1744.85 375.58,-1751.61"/>
</g>
<!-- components/chat/GoToBottomButton.js -->
<g id="node25" class="node">
<title>components/chat/GoToBottomButton.js</title>
<path fill="none" stroke="#cfffac" d="M604.33,-1732.89C604.33,-1732.89 366.67,-1732.89 366.67,-1732.89 362.83,-1732.89 359,-1729.06 359,-1725.22 359,-1725.22 359,-1717.56 359,-1717.56 359,-1713.72 362.83,-1709.89 366.67,-1709.89 366.67,-1709.89 604.33,-1709.89 604.33,-1709.89 608.17,-1709.89 612,-1713.72 612,-1717.56 612,-1717.56 612,-1725.22 612,-1725.22 612,-1729.06 608.17,-1732.89 604.33,-1732.89"/>
<text text-anchor="middle" x="485.5" y="-1717.69" font-family="Arial" font-size="14.00" fill="#cfffac">components/chat/GoToBottomButton.js</text>
</g>
<!-- components/layout/ChatWindow.js&#45;&gt;components/chat/GoToBottomButton.js -->
<g id="edge46" class="edge">
<title>components/layout/ChatWindow.js&#45;&gt;components/chat/GoToBottomButton.js</title>
<path fill="none" stroke="#757575" d="M237.62,-1654.99C267.94,-1666.37 316.22,-1683.67 359,-1695.39 375.68,-1699.96 393.81,-1704.15 410.96,-1707.78"/>
<polygon fill="#757575" stroke="#757575" points="410.42,-1711.24 420.93,-1709.84 411.85,-1704.38 410.42,-1711.24"/>
</g>
<!-- components/chat/Message.js -->
<g id="node26" class="node">
<title>components/chat/Message.js</title>
<path fill="none" stroke="#cfffac" d="M1182.83,-1812.89C1182.83,-1812.89 1005.17,-1812.89 1005.17,-1812.89 1001.33,-1812.89 997.5,-1809.06 997.5,-1805.22 997.5,-1805.22 997.5,-1797.56 997.5,-1797.56 997.5,-1793.72 1001.33,-1789.89 1005.17,-1789.89 1005.17,-1789.89 1182.83,-1789.89 1182.83,-1789.89 1186.67,-1789.89 1190.5,-1793.72 1190.5,-1797.56 1190.5,-1797.56 1190.5,-1805.22 1190.5,-1805.22 1190.5,-1809.06 1186.67,-1812.89 1182.83,-1812.89"/>
<text text-anchor="middle" x="1094" y="-1797.69" font-family="Arial" font-size="14.00" fill="#cfffac">components/chat/Message.js</text>
</g>
<!-- components/layout/ChatWindow.js&#45;&gt;components/chat/Message.js -->
<g id="edge47" class="edge">
<title>components/layout/ChatWindow.js&#45;&gt;components/chat/Message.js</title>
<path fill="none" stroke="#757575" d="M213.04,-1655.06C230.27,-1690.38 286.18,-1797.69 359,-1863.39 467.69,-1961.45 506.17,-1985.15 648,-2021.39 774.6,-2053.74 826.38,-2082.27 942,-2021.39 1023.76,-1978.34 1069.78,-1868.82 1086.12,-1822.54"/>
<polygon fill="#757575" stroke="#757575" points="1089.48,-1823.53 1089.4,-1812.94 1082.86,-1821.27 1089.48,-1823.53"/>
</g>
<!-- components/chat/SenderWrapper.js -->
<g id="node27" class="node">
<title>components/chat/SenderWrapper.js</title>
<path fill="none" stroke="#cfffac" d="M1202.33,-1494.89C1202.33,-1494.89 985.67,-1494.89 985.67,-1494.89 981.83,-1494.89 978,-1491.06 978,-1487.22 978,-1487.22 978,-1479.56 978,-1479.56 978,-1475.72 981.83,-1471.89 985.67,-1471.89 985.67,-1471.89 1202.33,-1471.89 1202.33,-1471.89 1206.17,-1471.89 1210,-1475.72 1210,-1479.56 1210,-1479.56 1210,-1487.22 1210,-1487.22 1210,-1491.06 1206.17,-1494.89 1202.33,-1494.89"/>
<text text-anchor="middle" x="1094" y="-1479.69" font-family="Arial" font-size="14.00" fill="#cfffac">components/chat/SenderWrapper.js</text>
</g>
<!-- components/layout/ChatWindow.js&#45;&gt;components/chat/SenderWrapper.js -->
<g id="edge48" class="edge">
<title>components/layout/ChatWindow.js&#45;&gt;components/chat/SenderWrapper.js</title>
<path fill="none" stroke="#757575" d="M318.73,-1654.06C511.88,-1671.49 893.43,-1700.69 942,-1664.39 987.28,-1630.54 941.93,-1585.92 978,-1542.39 994.85,-1522.05 1020.51,-1507.95 1043.32,-1498.64"/>
<polygon fill="#757575" stroke="#757575" points="1044.82,-1501.81 1052.89,-1494.94 1042.3,-1495.28 1044.82,-1501.81"/>
</g>
<!-- components/layout/ChatWindow.js&#45;&gt;components/ui/SkeletonLoaders.js -->
<g id="edge52" class="edge">
<title>components/layout/ChatWindow.js&#45;&gt;components/ui/SkeletonLoaders.js</title>
<path fill="none" stroke="#757575" d="M318.51,-1635.63C419.58,-1628.56 568.52,-1618.15 672.7,-1610.87"/>
<polygon fill="#757575" stroke="#757575" points="673.22,-1614.34 682.95,-1610.15 672.73,-1607.36 673.22,-1614.34"/>
</g>
<!-- components/ui/Dots.js -->
<g id="node39" class="node">
<title>components/ui/Dots.js</title>
<path fill="none" stroke="#cfffac" d="M1161.33,-753.89C1161.33,-753.89 1026.67,-753.89 1026.67,-753.89 1022.83,-753.89 1019,-750.06 1019,-746.22 1019,-746.22 1019,-738.56 1019,-738.56 1019,-734.72 1022.83,-730.89 1026.67,-730.89 1026.67,-730.89 1161.33,-730.89 1161.33,-730.89 1165.17,-730.89 1169,-734.72 1169,-738.56 1169,-738.56 1169,-746.22 1169,-746.22 1169,-750.06 1165.17,-753.89 1161.33,-753.89"/>
<text text-anchor="middle" x="1094" y="-738.69" font-family="Arial" font-size="14.00" fill="#cfffac">components/ui/Dots.js</text>
</g>
<!-- components/layout/ChatWindow.js&#45;&gt;components/ui/Dots.js -->
<g id="edge51" class="edge">
<title>components/layout/ChatWindow.js&#45;&gt;components/ui/Dots.js</title>
<path fill="none" stroke="#757575" d="M211.94,-1631.73C229.04,-1586.38 291.27,-1417.02 323,-1272.39 336.21,-1212.19 316.77,-1042.28 359,-997.39 449.41,-901.26 824.53,-944.52 942,-884.39 1001.15,-854.12 1053.53,-793.64 1078.13,-762.28"/>
<polygon fill="#757575" stroke="#757575" points="1080.98,-764.31 1084.32,-754.26 1075.44,-760.04 1080.98,-764.31"/>
</g>
<!-- utils/socket.js -->
<g id="node40" class="node">
<title>utils/socket.js</title>
<path fill="none" stroke="#c6c5fe" d="M526.33,-1256.89C526.33,-1256.89 444.67,-1256.89 444.67,-1256.89 440.83,-1256.89 437,-1253.06 437,-1249.22 437,-1249.22 437,-1241.56 437,-1241.56 437,-1237.72 440.83,-1233.89 444.67,-1233.89 444.67,-1233.89 526.33,-1233.89 526.33,-1233.89 530.17,-1233.89 534,-1237.72 534,-1241.56 534,-1241.56 534,-1249.22 534,-1249.22 534,-1253.06 530.17,-1256.89 526.33,-1256.89"/>
<text text-anchor="middle" x="485.5" y="-1241.69" font-family="Arial" font-size="14.00" fill="#c6c5fe">utils/socket.js</text>
</g>
<!-- components/layout/ChatWindow.js&#45;&gt;utils/socket.js -->
<g id="edge53" class="edge">
<title>components/layout/ChatWindow.js&#45;&gt;utils/socket.js</title>
<path fill="none" stroke="#757575" d="M208.21,-1631.78C212.07,-1579.5 235.24,-1364.21 359,-1265.39 377.85,-1250.34 403.49,-1244.5 426.68,-1242.74"/>
<polygon fill="#757575" stroke="#757575" points="426.98,-1246.23 436.78,-1242.21 426.61,-1239.24 426.98,-1246.23"/>
</g>
<!-- pages/GroupSettings.js&#45;&gt;components/context/DataContext.js -->
<g id="edge63" class="edge">
<title>pages/GroupSettings.js&#45;&gt;components/context/DataContext.js</title>
<path fill="none" stroke="#757575" d="M564.66,-1280.17C656.03,-1271.88 811.38,-1254.63 942,-1224.39 980.79,-1215.41 1023.79,-1200.68 1053.95,-1189.53"/>
<polygon fill="#757575" stroke="#757575" points="1055.52,-1192.68 1063.66,-1185.9 1053.07,-1186.12 1055.52,-1192.68"/>
</g>
<!-- pages/GroupSettings.js&#45;&gt;components/context/FlashContext.js -->
<g id="edge64" class="edge">
<title>pages/GroupSettings.js&#45;&gt;components/context/FlashContext.js</title>
<path fill="none" stroke="#757575" d="M490.42,-1298.18C506.63,-1347.24 569.65,-1540.13 612,-1701.39 630.62,-1772.31 590.98,-1816.29 648,-1862.39 745.12,-1940.91 1114.18,-1945.49 1210,-1865.39 1341.45,-1755.49 1359.77,-1162.67 1362.16,-1040.44"/>
<polygon fill="#757575" stroke="#757575" points="1365.67,-1040.17 1362.34,-1030.11 1358.67,-1040.05 1365.67,-1040.17"/>
</g>
<!-- pages/GroupSettings.js&#45;&gt;components/context/UiContext.js -->
<g id="edge65" class="edge">
<title>pages/GroupSettings.js&#45;&gt;components/context/UiContext.js</title>
<path fill="none" stroke="#757575" d="M489.63,-1298.17C501.61,-1340.56 548.89,-1485.82 648,-1543.39 701.75,-1574.61 863.5,-1574.11 976.4,-1569.42"/>
<polygon fill="#757575" stroke="#757575" points="976.64,-1572.91 986.48,-1568.98 976.34,-1565.92 976.64,-1572.91"/>
</g>
<!-- pages/GroupSettings.js&#45;&gt;utils/axios.js -->
<g id="edge71" class="edge">
<title>pages/GroupSettings.js&#45;&gt;utils/axios.js</title>
<path fill="none" stroke="#757575" d="M564.8,-1281.43C581.07,-1278.2 597.62,-1273.16 612,-1265.39 632.75,-1254.17 627.68,-1238.37 648,-1226.39 763.88,-1158.06 827.38,-1224.81 942,-1154.39 1007.5,-1114.15 1059.29,-1036.03 1081.39,-998.92"/>
<polygon fill="#757575" stroke="#757575" points="1084.57,-1000.41 1086.59,-990.01 1078.53,-996.88 1084.57,-1000.41"/>
</g>
<!-- pages/GroupSettings.js&#45;&gt;components/chat/ChatBanner.js -->
<g id="edge62" class="edge">
<title>pages/GroupSettings.js&#45;&gt;components/chat/ChatBanner.js</title>
<path fill="none" stroke="#757575" d="M488.13,-1298.15C495.64,-1347.42 531.62,-1538.53 648,-1623.39 657.77,-1630.51 668.91,-1635.69 680.58,-1639.39"/>
<polygon fill="#757575" stroke="#757575" points="679.92,-1642.84 690.49,-1642.17 681.8,-1636.1 679.92,-1642.84"/>
</g>
<!-- pages/GroupSettings.js&#45;&gt;components/ui/SkeletonLoaders.js -->
<g id="edge70" class="edge">
<title>pages/GroupSettings.js&#45;&gt;components/ui/SkeletonLoaders.js</title>
<path fill="none" stroke="#757575" d="M489.13,-1297.91C499.9,-1342.25 545.01,-1502.95 648,-1576.39 655.78,-1581.94 664.37,-1586.42 673.38,-1590.04"/>
<polygon fill="#757575" stroke="#757575" points="672.3,-1593.37 682.89,-1593.5 674.69,-1586.79 672.3,-1593.37"/>
</g>
<!-- components/ui/ImageSelectorPreview.js -->
<g id="node44" class="node">
<title>components/ui/ImageSelectorPreview.js</title>
<path fill="none" stroke="#cfffac" d="M915.83,-557.89C915.83,-557.89 674.17,-557.89 674.17,-557.89 670.33,-557.89 666.5,-554.06 666.5,-550.22 666.5,-550.22 666.5,-542.56 666.5,-542.56 666.5,-538.72 670.33,-534.89 674.17,-534.89 674.17,-534.89 915.83,-534.89 915.83,-534.89 919.67,-534.89 923.5,-538.72 923.5,-542.56 923.5,-542.56 923.5,-550.22 923.5,-550.22 923.5,-554.06 919.67,-557.89 915.83,-557.89"/>
<text text-anchor="middle" x="795" y="-542.69" font-family="Arial" font-size="14.00" fill="#cfffac">components/ui/ImageSelectorPreview.js</text>
</g>
<!-- pages/GroupSettings.js&#45;&gt;components/ui/ImageSelectorPreview.js -->
<g id="edge66" class="edge">
<title>pages/GroupSettings.js&#45;&gt;components/ui/ImageSelectorPreview.js</title>
<path fill="none" stroke="#757575" d="M564.58,-1289.27C582.52,-1286 599.87,-1278.99 612,-1265.39 714.66,-1150.32 545.94,-687.99 648,-572.39 651.1,-568.87 654.5,-565.73 658.14,-562.92"/>
<polygon fill="#757575" stroke="#757575" points="660.15,-565.78 666.47,-557.28 656.23,-559.99 660.15,-565.78"/>
</g>
<!-- components/ui/InputBox.js -->
<g id="node45" class="node">
<title>components/ui/InputBox.js</title>
<path fill="none" stroke="#cfffac" d="M1174.33,-556.89C1174.33,-556.89 1013.67,-556.89 1013.67,-556.89 1009.83,-556.89 1006,-553.06 1006,-549.22 1006,-549.22 1006,-541.56 1006,-541.56 1006,-537.72 1009.83,-533.89 1013.67,-533.89 1013.67,-533.89 1174.33,-533.89 1174.33,-533.89 1178.17,-533.89 1182,-537.72 1182,-541.56 1182,-541.56 1182,-549.22 1182,-549.22 1182,-553.06 1178.17,-556.89 1174.33,-556.89"/>
<text text-anchor="middle" x="1094" y="-541.69" font-family="Arial" font-size="14.00" fill="#cfffac">components/ui/InputBox.js</text>
</g>
<!-- pages/GroupSettings.js&#45;&gt;components/ui/InputBox.js -->
<g id="edge67" class="edge">
<title>pages/GroupSettings.js&#45;&gt;components/ui/InputBox.js</title>
<path fill="none" stroke="#757575" d="M564.56,-1289.24C582.5,-1285.98 599.85,-1278.97 612,-1265.39 709.93,-1155.91 548.23,-713.19 648,-605.39 692.76,-557.02 876.69,-575.26 942,-566.39 960.98,-563.81 981.3,-561.01 1000.69,-558.32"/>
<polygon fill="#757575" stroke="#757575" points="1001.3,-561.77 1010.73,-556.93 1000.34,-554.84 1001.3,-561.77"/>
</g>
<!-- components/ui/MemberOptions.js -->
<g id="node46" class="node">
<title>components/ui/MemberOptions.js</title>
<path fill="none" stroke="#cfffac" d="M897.83,-1533.89C897.83,-1533.89 692.17,-1533.89 692.17,-1533.89 688.33,-1533.89 684.5,-1530.06 684.5,-1526.22 684.5,-1526.22 684.5,-1518.56 684.5,-1518.56 684.5,-1514.72 688.33,-1510.89 692.17,-1510.89 692.17,-1510.89 897.83,-1510.89 897.83,-1510.89 901.67,-1510.89 905.5,-1514.72 905.5,-1518.56 905.5,-1518.56 905.5,-1526.22 905.5,-1526.22 905.5,-1530.06 901.67,-1533.89 897.83,-1533.89"/>
<text text-anchor="middle" x="795" y="-1518.69" font-family="Arial" font-size="14.00" fill="#cfffac">components/ui/MemberOptions.js</text>
</g>
<!-- pages/GroupSettings.js&#45;&gt;components/ui/MemberOptions.js -->
<g id="edge68" class="edge">
<title>pages/GroupSettings.js&#45;&gt;components/ui/MemberOptions.js</title>
<path fill="none" stroke="#757575" d="M491.67,-1298.12C508.33,-1334.45 564.46,-1445.66 648,-1496.39 656.25,-1501.4 665.21,-1505.5 674.5,-1508.85"/>
<polygon fill="#757575" stroke="#757575" points="673.69,-1512.26 684.29,-1512.07 675.88,-1505.62 673.69,-1512.26"/>
</g>
<!-- components/ui/Modal.js -->
<g id="node47" class="node">
<title>components/ui/Modal.js</title>
<path fill="none" stroke="#c6c5fe" d="M867.33,-516.89C867.33,-516.89 722.67,-516.89 722.67,-516.89 718.83,-516.89 715,-513.06 715,-509.22 715,-509.22 715,-501.56 715,-501.56 715,-497.72 718.83,-493.89 722.67,-493.89 722.67,-493.89 867.33,-493.89 867.33,-493.89 871.17,-493.89 875,-497.72 875,-501.56 875,-501.56 875,-509.22 875,-509.22 875,-513.06 871.17,-516.89 867.33,-516.89"/>
<text text-anchor="middle" x="795" y="-501.69" font-family="Arial" font-size="14.00" fill="#c6c5fe">components/ui/Modal.js</text>
</g>
<!-- pages/GroupSettings.js&#45;&gt;components/ui/Modal.js -->
<g id="edge69" class="edge">
<title>pages/GroupSettings.js&#45;&gt;components/ui/Modal.js</title>
<path fill="none" stroke="#757575" d="M564.61,-1289.29C582.55,-1286.03 599.89,-1279.01 612,-1265.39 666.7,-1203.87 592.39,-586.09 648,-525.39 662.55,-509.51 683.31,-501.91 704.63,-498.86"/>
<polygon fill="#757575" stroke="#757575" points="705.22,-502.32 714.78,-497.74 704.46,-495.36 705.22,-502.32"/>
</g>
<!-- pages/LoginPage.js&#45;&gt;components/context/DataContext.js -->
<g id="edge72" class="edge">
<title>pages/LoginPage.js&#45;&gt;components/context/DataContext.js</title>
<path fill="none" stroke="#757575" d="M862.85,-621.7C891.15,-623.46 922.1,-630.99 942,-652.39 994.64,-709 952.13,-925.54 978,-998.39 1000.33,-1061.27 1049.41,-1124.09 1075.65,-1154.88"/>
<polygon fill="#757575" stroke="#757575" points="1073.22,-1157.41 1082.41,-1162.68 1078.51,-1152.83 1073.22,-1157.41"/>
</g>
<!-- pages/LoginPage.js&#45;&gt;components/context/UiContext.js -->
<g id="edge73" class="edge">
<title>pages/LoginPage.js&#45;&gt;components/context/UiContext.js</title>
<path fill="none" stroke="#757575" d="M816.42,-637.93C849.73,-658.06 914.78,-703.04 942,-761.39 1011.88,-911.2 887.96,-1365.76 978,-1504.39 991.32,-1524.89 1014.23,-1538.46 1036.12,-1547.28"/>
<polygon fill="#757575" stroke="#757575" points="1035.14,-1550.65 1045.73,-1550.89 1037.6,-1544.09 1035.14,-1550.65"/>
</g>
<!-- pages/LoginPage.js&#45;&gt;utils/axios.js -->
<g id="edge76" class="edge">
<title>pages/LoginPage.js&#45;&gt;utils/axios.js</title>
<path fill="none" stroke="#757575" d="M862.7,-623.92C890.11,-626.27 920.43,-633.64 942,-652.39 980.83,-686.13 957.84,-715.06 978,-762.39 1009.64,-836.66 1057.67,-919.68 1080.33,-957.54"/>
<polygon fill="#757575" stroke="#757575" points="1077.61,-959.81 1085.76,-966.57 1083.6,-956.2 1077.61,-959.81"/>
</g>
<!-- components/ui/CircleButton.js -->
<g id="node31" class="node">
<title>components/ui/CircleButton.js</title>
<path fill="none" stroke="#cfffac" d="M1184.33,-319.89C1184.33,-319.89 1003.67,-319.89 1003.67,-319.89 999.83,-319.89 996,-316.06 996,-312.22 996,-312.22 996,-304.56 996,-304.56 996,-300.72 999.83,-296.89 1003.67,-296.89 1003.67,-296.89 1184.33,-296.89 1184.33,-296.89 1188.17,-296.89 1192,-300.72 1192,-304.56 1192,-304.56 1192,-312.22 1192,-312.22 1192,-316.06 1188.17,-319.89 1184.33,-319.89"/>
<text text-anchor="middle" x="1094" y="-304.69" font-family="Arial" font-size="14.00" fill="#cfffac">components/ui/CircleButton.js</text>
</g>
<!-- pages/LoginPage.js&#45;&gt;components/ui/CircleButton.js -->
<g id="edge74" class="edge">
<title>pages/LoginPage.js&#45;&gt;components/ui/CircleButton.js</title>
<path fill="none" stroke="#757575" d="M845.33,-614.81C875.87,-605.68 914.39,-590.39 942,-566.39 982.56,-531.13 1056.32,-384.06 1083.02,-329.17"/>
<polygon fill="#757575" stroke="#757575" points="1086.23,-330.56 1087.44,-320.04 1079.93,-327.51 1086.23,-330.56"/>
</g>
<!-- pages/LoginPage.js&#45;&gt;components/ui/InputBox.js -->
<g id="edge75" class="edge">
<title>pages/LoginPage.js&#45;&gt;components/ui/InputBox.js</title>
<path fill="none" stroke="#757575" d="M862.67,-617.01C887.76,-612.83 916.39,-607.28 942,-600.39 981.87,-589.66 1026.1,-572.96 1056.33,-560.77"/>
<polygon fill="#757575" stroke="#757575" points="1057.69,-564 1065.63,-556.99 1055.05,-557.52 1057.69,-564"/>
</g>
<!-- pages/MainWindow.js&#45;&gt;components/context/DataContext.js -->
<g id="edge77" class="edge">
<title>pages/MainWindow.js&#45;&gt;components/context/DataContext.js</title>
<path fill="none" stroke="#757575" d="M216.24,-914.93C237.36,-941.88 294.25,-1008.86 359,-1038.39 373.86,-1045.16 926.2,-1109.26 942,-1113.39 984.33,-1124.47 1030.66,-1144.44 1060.69,-1158.51"/>
<polygon fill="#757575" stroke="#757575" points="1059.3,-1161.73 1069.84,-1162.85 1062.3,-1155.4 1059.3,-1161.73"/>
</g>
<!-- pages/MainWindow.js&#45;&gt;components/context/FlashContext.js -->
<g id="edge78" class="edge">
<title>pages/MainWindow.js&#45;&gt;components/context/FlashContext.js</title>
<path fill="none" stroke="#757575" d="M208.53,-891.84C216.03,-810.12 264.64,-318.95 359,-209.39 531.08,-9.6 678.32,-98.41 942,-99.39 1061.11,-99.83 1119.41,-24.04 1210,-101.39 1351.48,-222.19 1361.82,-869.1 1362.47,-996.57"/>
<polygon fill="#757575" stroke="#757575" points="1358.97,-996.68 1362.51,-1006.66 1365.97,-996.65 1358.97,-996.68"/>
</g>
<!-- pages/MainWindow.js&#45;&gt;components/context/SocketContext.js -->
<g id="edge79" class="edge">
<title>pages/MainWindow.js&#45;&gt;components/context/SocketContext.js</title>
<path fill="none" stroke="#757575" d="M213.86,-914.91C231.88,-946.34 286.71,-1033.76 359,-1072.39 386.5,-1087.08 556.28,-1108.29 675.4,-1121.71"/>
<polygon fill="#757575" stroke="#757575" points="675.36,-1125.22 685.68,-1122.86 676.14,-1118.27 675.36,-1125.22"/>
</g>
<!-- pages/MainWindow.js&#45;&gt;components/context/UiContext.js -->
<g id="edge80" class="edge">
<title>pages/MainWindow.js&#45;&gt;components/context/UiContext.js</title>
<path fill="none" stroke="#757575" d="M215.69,-915.06C236.93,-945.88 294.12,-1032.69 323,-1113.39 352.4,-1195.55 322.48,-1227.14 359,-1306.39 444.58,-1492.11 463.5,-1576.21 648,-1664.39 765.89,-1720.73 833.07,-1736.55 942,-1664.39 973.8,-1643.32 949.54,-1609.66 978.71,-1580.39"/>
<polygon fill="#757575" stroke="#757575" points="981.01,-1583.02 986.29,-1573.84 976.43,-1577.73 981.01,-1583.02"/>
</g>
<!-- pages/MainWindow.js&#45;&gt;utils/axios.js -->
<g id="edge84" class="edge">
<title>pages/MainWindow.js&#45;&gt;utils/axios.js</title>
<path fill="none" stroke="#757575" d="M225.52,-891.87C311.06,-838.78 682.7,-625.92 942,-761.39 1022.95,-803.68 1069.29,-911.35 1085.92,-957.2"/>
<polygon fill="#757575" stroke="#757575" points="1082.65,-958.45 1089.26,-966.72 1089.25,-956.13 1082.65,-958.45"/>
</g>
<!-- components/layout/GroupsBar.js -->
<g id="node41" class="node">
<title>components/layout/GroupsBar.js</title>
<path fill="none" stroke="#c6c5fe" d="M584.33,-873.89C584.33,-873.89 386.67,-873.89 386.67,-873.89 382.83,-873.89 379,-870.06 379,-866.22 379,-866.22 379,-858.56 379,-858.56 379,-854.72 382.83,-850.89 386.67,-850.89 386.67,-850.89 584.33,-850.89 584.33,-850.89 588.17,-850.89 592,-854.72 592,-858.56 592,-858.56 592,-866.22 592,-866.22 592,-870.06 588.17,-873.89 584.33,-873.89"/>
<text text-anchor="middle" x="485.5" y="-858.69" font-family="Arial" font-size="14.00" fill="#c6c5fe">components/layout/GroupsBar.js</text>
</g>
<!-- pages/MainWindow.js&#45;&gt;components/layout/GroupsBar.js -->
<g id="edge81" class="edge">
<title>pages/MainWindow.js&#45;&gt;components/layout/GroupsBar.js</title>
<path fill="none" stroke="#757575" d="M281,-892.51C316.46,-887.26 359.26,-880.93 396.44,-875.42"/>
<polygon fill="#757575" stroke="#757575" points="397.39,-878.82 406.77,-873.89 396.37,-871.9 397.39,-878.82"/>
</g>
<!-- components/ui/FlashMessage.js -->
<g id="node43" class="node">
<title>components/ui/FlashMessage.js</title>
<path fill="none" stroke="#cfffac" d="M583.33,-914.89C583.33,-914.89 387.67,-914.89 387.67,-914.89 383.83,-914.89 380,-911.06 380,-907.22 380,-907.22 380,-899.56 380,-899.56 380,-895.72 383.83,-891.89 387.67,-891.89 387.67,-891.89 583.33,-891.89 583.33,-891.89 587.17,-891.89 591,-895.72 591,-899.56 591,-899.56 591,-907.22 591,-907.22 591,-911.06 587.17,-914.89 583.33,-914.89"/>
<text text-anchor="middle" x="485.5" y="-899.69" font-family="Arial" font-size="14.00" fill="#cfffac">components/ui/FlashMessage.js</text>
</g>
<!-- pages/MainWindow.js&#45;&gt;components/ui/FlashMessage.js -->
<g id="edge82" class="edge">
<title>pages/MainWindow.js&#45;&gt;components/ui/FlashMessage.js</title>
<path fill="none" stroke="#757575" d="M281,-903.39C308.22,-903.39 339.77,-903.39 369.78,-903.39"/>
<polygon fill="#757575" stroke="#757575" points="369.89,-906.89 379.89,-903.39 369.89,-899.89 369.89,-906.89"/>
</g>
<!-- pages/MainWindow.js&#45;&gt;components/ui/Modal.js -->
<g id="edge83" class="edge">
<title>pages/MainWindow.js&#45;&gt;components/ui/Modal.js</title>
<path fill="none" stroke="#757575" d="M216.03,-891.75C256.61,-837.46 436.95,-608.28 648,-525.39 665.84,-518.38 685.75,-513.76 704.99,-510.73"/>
<polygon fill="#757575" stroke="#757575" points="705.57,-514.18 714.97,-509.29 704.57,-507.26 705.57,-514.18"/>
</g>
<!-- pages/NewChannelPage.js&#45;&gt;components/context/DataContext.js -->
<g id="edge85" class="edge">
<title>pages/NewChannelPage.js&#45;&gt;components/context/DataContext.js</title>
<path fill="none" stroke="#757575" d="M575.2,-1026.01C688.11,-1036.49 876.4,-1056.74 942,-1080.39 992.02,-1098.42 1043.06,-1134.72 1071.13,-1156.56"/>
<polygon fill="#757575" stroke="#757575" points="1069.05,-1159.38 1079.07,-1162.83 1073.39,-1153.89 1069.05,-1159.38"/>
</g>
<!-- pages/NewChannelPage.js&#45;&gt;components/context/FlashContext.js -->
<g id="edge86" class="edge">
<title>pages/NewChannelPage.js&#45;&gt;components/context/FlashContext.js</title>
<path fill="none" stroke="#757575" d="M575.32,-1018.39C731.56,-1018.39 1056.03,-1018.39 1235.78,-1018.39"/>
<polygon fill="#757575" stroke="#757575" points="1235.81,-1021.89 1245.81,-1018.39 1235.81,-1014.89 1235.81,-1021.89"/>
</g>
<!-- pages/NewChannelPage.js&#45;&gt;components/context/UiContext.js -->
<g id="edge87" class="edge">
<title>pages/NewChannelPage.js&#45;&gt;components/context/UiContext.js</title>
<path fill="none" stroke="#757575" d="M495.95,-1030.06C519.8,-1060.16 582.57,-1143.74 612,-1224.39 648.07,-1323.24 573.44,-1384.14 648,-1458.39 694.81,-1505.01 878.22,-1485.19 942,-1502.39 983.78,-1513.65 1029.71,-1532.96 1059.81,-1546.63"/>
<polygon fill="#757575" stroke="#757575" points="1058.45,-1549.86 1069,-1550.85 1061.38,-1543.5 1058.45,-1549.86"/>
</g>
<!-- pages/NewChannelPage.js&#45;&gt;utils/axios.js -->
<g id="edge89" class="edge">
<title>pages/NewChannelPage.js&#45;&gt;utils/axios.js</title>
<path fill="none" stroke="#757575" d="M575.32,-1010.24C598.93,-1008.19 624.42,-1006.1 648,-1004.39 789.15,-994.15 955.72,-985.27 1039.36,-981.03"/>
<polygon fill="#757575" stroke="#757575" points="1039.58,-984.53 1049.39,-980.53 1039.23,-977.54 1039.58,-984.53"/>
</g>
<!-- components/forms/NewChannelForm.js -->
<g id="node32" class="node">
<title>components/forms/NewChannelForm.js</title>
<path fill="none" stroke="#c6c5fe" d="M915.33,-475.89C915.33,-475.89 674.67,-475.89 674.67,-475.89 670.83,-475.89 667,-472.06 667,-468.22 667,-468.22 667,-460.56 667,-460.56 667,-456.72 670.83,-452.89 674.67,-452.89 674.67,-452.89 915.33,-452.89 915.33,-452.89 919.17,-452.89 923,-456.72 923,-460.56 923,-460.56 923,-468.22 923,-468.22 923,-472.06 919.17,-475.89 915.33,-475.89"/>
<text text-anchor="middle" x="795" y="-460.69" font-family="Arial" font-size="14.00" fill="#c6c5fe">components/forms/NewChannelForm.js</text>
</g>
<!-- pages/NewChannelPage.js&#45;&gt;components/forms/NewChannelForm.js -->
<g id="edge88" class="edge">
<title>pages/NewChannelPage.js&#45;&gt;components/forms/NewChannelForm.js</title>
<path fill="none" stroke="#757575" d="M512.69,-1006.82C542.47,-992.13 589.83,-963.75 612,-923.39 659.13,-837.6 580.69,-555.46 648,-484.39 651.12,-481.1 654.5,-478.17 658.1,-475.56"/>
<polygon fill="#757575" stroke="#757575" points="660.26,-478.34 666.87,-470.06 656.54,-472.41 660.26,-478.34"/>
</g>
<!-- pages/NewGroupPage.js&#45;&gt;components/context/DataContext.js -->
<g id="edge90" class="edge">
<title>pages/NewGroupPage.js&#45;&gt;components/context/DataContext.js</title>
<path fill="none" stroke="#757575" d="M495.48,-242.1C518.76,-273.07 581.35,-360.45 612,-443.39 643.76,-529.34 581.28,-583.58 648,-646.39 743.78,-736.55 849.1,-587.27 942,-680.39 992.23,-730.74 953.9,-931.48 978,-998.39 1000.61,-1061.17 1049.57,-1124.04 1075.72,-1154.85"/>
<polygon fill="#757575" stroke="#757575" points="1073.27,-1157.37 1082.45,-1162.67 1078.58,-1152.81 1073.27,-1157.37"/>
</g>
<!-- pages/NewGroupPage.js&#45;&gt;components/context/FlashContext.js -->
<g id="edge91" class="edge">
<title>pages/NewGroupPage.js&#45;&gt;components/context/FlashContext.js</title>
<path fill="none" stroke="#757575" d="M499.06,-218.84C524.69,-196.14 585.88,-146.36 648,-128.39 768.29,-93.58 1120.32,-82 1210,-169.39 1333,-289.24 1358.01,-875.79 1361.88,-996.6"/>
<polygon fill="#757575" stroke="#757575" points="1358.39,-996.92 1362.2,-1006.81 1365.39,-996.71 1358.39,-996.92"/>
</g>
<!-- pages/NewGroupPage.js&#45;&gt;components/context/UiContext.js -->
<g id="edge92" class="edge">
<title>pages/NewGroupPage.js&#45;&gt;components/context/UiContext.js</title>
<path fill="none" stroke="#757575" d="M496.52,-242.33C521.68,-273.15 587.3,-358.94 612,-443.39 642.65,-548.18 573.75,-1345.34 648,-1425.39 692.71,-1473.59 884.6,-1426.34 942,-1458.39 964.67,-1471.05 957.93,-1487.93 978,-1504.39 1000.11,-1522.52 1028.83,-1537.01 1052.03,-1546.97"/>
<polygon fill="#757575" stroke="#757575" points="1050.7,-1550.21 1061.28,-1550.83 1053.4,-1543.75 1050.7,-1550.21"/>
</g>
<!-- pages/NewGroupPage.js&#45;&gt;utils/axios.js -->
<g id="edge95" class="edge">
<title>pages/NewGroupPage.js&#45;&gt;utils/axios.js</title>
<path fill="none" stroke="#757575" d="M569.01,-220.91C672.96,-214.06 849.2,-220.36 942,-325.39 1006.52,-398.41 950.54,-668.9 978,-762.39 1000.74,-839.8 1053.03,-921.22 1078.51,-958.11"/>
<polygon fill="#757575" stroke="#757575" points="1075.78,-960.31 1084.38,-966.5 1081.51,-956.3 1075.78,-960.31"/>
</g>
<!-- components/forms/JoinByInvite.js -->
<g id="node29" class="node">
<title>components/forms/JoinByInvite.js</title>
<path fill="none" stroke="#c6c5fe" d="M896.83,-160.89C896.83,-160.89 693.17,-160.89 693.17,-160.89 689.33,-160.89 685.5,-157.06 685.5,-153.22 685.5,-153.22 685.5,-145.56 685.5,-145.56 685.5,-141.72 689.33,-137.89 693.17,-137.89 693.17,-137.89 896.83,-137.89 896.83,-137.89 900.67,-137.89 904.5,-141.72 904.5,-145.56 904.5,-145.56 904.5,-153.22 904.5,-153.22 904.5,-157.06 900.67,-160.89 896.83,-160.89"/>
<text text-anchor="middle" x="795" y="-145.69" font-family="Arial" font-size="14.00" fill="#c6c5fe">components/forms/JoinByInvite.js</text>
</g>
<!-- pages/NewGroupPage.js&#45;&gt;components/forms/JoinByInvite.js -->
<g id="edge93" class="edge">
<title>pages/NewGroupPage.js&#45;&gt;components/forms/JoinByInvite.js</title>
<path fill="none" stroke="#757575" d="M511.66,-218.85C542.95,-204.98 598.32,-182 648,-169.39 657.87,-166.88 668.19,-164.67 678.6,-162.73"/>
<polygon fill="#757575" stroke="#757575" points="679.35,-166.15 688.58,-160.94 678.12,-159.26 679.35,-166.15"/>
</g>
<!-- components/forms/NewGroupForm.js -->
<g id="node33" class="node">
<title>components/forms/NewGroupForm.js</title>
<path fill="none" stroke="#c6c5fe" d="M909.33,-201.89C909.33,-201.89 680.67,-201.89 680.67,-201.89 676.83,-201.89 673,-198.06 673,-194.22 673,-194.22 673,-186.56 673,-186.56 673,-182.72 676.83,-178.89 680.67,-178.89 680.67,-178.89 909.33,-178.89 909.33,-178.89 913.17,-178.89 917,-182.72 917,-186.56 917,-186.56 917,-194.22 917,-194.22 917,-198.06 913.17,-201.89 909.33,-201.89"/>
<text text-anchor="middle" x="795" y="-186.69" font-family="Arial" font-size="14.00" fill="#c6c5fe">components/forms/NewGroupForm.js</text>
</g>
<!-- pages/NewGroupPage.js&#45;&gt;components/forms/NewGroupForm.js -->
<g id="edge94" class="edge">
<title>pages/NewGroupPage.js&#45;&gt;components/forms/NewGroupForm.js</title>
<path fill="none" stroke="#757575" d="M569.31,-219.62C608.17,-214.56 654.79,-208.5 695.45,-203.21"/>
<polygon fill="#757575" stroke="#757575" points="695.92,-206.68 705.39,-201.92 695.02,-199.74 695.92,-206.68"/>
</g>
<!-- pages/PageNotFound.js&#45;&gt;components/context/FlashContext.js -->
<g id="edge96" class="edge">
<title>pages/PageNotFound.js&#45;&gt;components/context/FlashContext.js</title>
<path fill="none" stroke="#757575" d="M276.95,-56.88C480.55,-24.8 1070.38,55.7 1210,-63.39 1357.56,-189.25 1362.99,-865.71 1362.64,-996.49"/>
<polygon fill="#757575" stroke="#757575" points="1359.14,-996.8 1362.6,-1006.81 1366.14,-996.83 1359.14,-996.8"/>
</g>
<!-- pages/UserPage.js&#45;&gt;components/context/DataContext.js -->
<g id="edge97" class="edge">
<title>pages/UserPage.js&#45;&gt;components/context/DataContext.js</title>
<path fill="none" stroke="#757575" d="M491.79,-476.12C508.79,-512.5 565.81,-624.31 648,-680.39 759.95,-756.78 851.98,-660.06 942,-761.39 1012.76,-841.04 939.99,-898.86 978,-998.39 1001.8,-1060.73 1050.25,-1123.78 1076.01,-1154.74"/>
<polygon fill="#757575" stroke="#757575" points="1073.51,-1157.21 1082.64,-1162.6 1078.87,-1152.7 1073.51,-1157.21"/>
</g>
<!-- pages/UserPage.js&#45;&gt;components/context/FlashContext.js -->
<g id="edge98" class="edge">
<title>pages/UserPage.js&#45;&gt;components/context/FlashContext.js</title>
<path fill="none" stroke="#757575" d="M492.47,-452.52C510.39,-418.43 567.49,-320.32 648,-284.39 762.05,-233.49 1113.53,-208.07 1210,-287.39 1323.88,-381.02 1355.78,-885.27 1361.48,-996.62"/>
<polygon fill="#757575" stroke="#757575" points="1357.99,-996.85 1361.98,-1006.67 1364.98,-996.51 1357.99,-996.85"/>
</g>
<!-- pages/UserPage.js&#45;&gt;components/context/SocketContext.js -->
<g id="edge99" class="edge">
<title>pages/UserPage.js&#45;&gt;components/context/SocketContext.js</title>
<path fill="none" stroke="#757575" d="M490.21,-476.03C506.3,-526.11 572.73,-727.71 648,-884.39 690.69,-973.26 753.68,-1072.73 780.8,-1114.37"/>
<polygon fill="#757575" stroke="#757575" points="777.91,-1116.34 786.31,-1122.79 783.76,-1112.51 777.91,-1116.34"/>
</g>
<!-- pages/UserPage.js&#45;&gt;utils/axios.js -->
<g id="edge105" class="edge">
<title>pages/UserPage.js&#45;&gt;utils/axios.js</title>
<path fill="none" stroke="#757575" d="M540.71,-452.87C648.48,-431.37 884.22,-391.76 942,-443.39 995.2,-490.92 956.86,-694.25 978,-762.39 1001.9,-839.45 1053.63,-921.04 1078.74,-958.04"/>
<polygon fill="#757575" stroke="#757575" points="1075.97,-960.19 1084.52,-966.45 1081.74,-956.23 1075.97,-960.19"/>
</g>
<!-- pages/UserPage.js&#45;&gt;components/ui/CircleButton.js -->
<g id="edge100" class="edge">
<title>pages/UserPage.js&#45;&gt;components/ui/CircleButton.js</title>
<path fill="none" stroke="#757575" d="M495.41,-452.51C517.51,-424.16 578.11,-352.85 648,-325.39 766.95,-278.65 917.82,-285.18 1009.8,-295.68"/>
<polygon fill="#757575" stroke="#757575" points="1009.55,-299.17 1019.89,-296.87 1010.37,-292.22 1009.55,-299.17"/>
</g>
<!-- pages/UserPage.js&#45;&gt;components/ui/ImageSelectorPreview.js -->
<g id="edge101" class="edge">
<title>pages/UserPage.js&#45;&gt;components/ui/ImageSelectorPreview.js</title>
<path fill="none" stroke="#757575" d="M511.95,-475.99C543.31,-489.82 598.51,-512.65 648,-525.39 659.33,-528.31 671.27,-530.85 683.24,-533.07"/>
<polygon fill="#757575" stroke="#757575" points="682.83,-536.55 693.29,-534.85 684.06,-529.66 682.83,-536.55"/>
</g>
<!-- pages/UserPage.js&#45;&gt;components/ui/InputBox.js -->
<g id="edge102" class="edge">
<title>pages/UserPage.js&#45;&gt;components/ui/InputBox.js</title>
<path fill="none" stroke="#757575" d="M512.99,-452.86C584.74,-423.36 787.82,-351.52 942,-410.39 1002.96,-433.66 1054.88,-494.12 1078.84,-525.63"/>
<polygon fill="#757575" stroke="#757575" points="1076.06,-527.77 1084.84,-533.7 1081.68,-523.59 1076.06,-527.77"/>
</g>
<!-- pages/UserPage.js&#45;&gt;components/ui/Modal.js -->
<g id="edge103" class="edge">
<title>pages/UserPage.js&#45;&gt;components/ui/Modal.js</title>
<path fill="none" stroke="#757575" d="M551.34,-473.03C595.93,-478.98 655.72,-486.95 704.8,-493.5"/>
<polygon fill="#757575" stroke="#757575" points="704.4,-496.97 714.78,-494.83 705.33,-490.04 704.4,-496.97"/>
</g>
<!-- components/ui/TextButton.js -->
<g id="node48" class="node">
<title>components/ui/TextButton.js</title>
<path fill="none" stroke="#cfffac" d="M880.33,-357.89C880.33,-357.89 709.67,-357.89 709.67,-357.89 705.83,-357.89 702,-354.06 702,-350.22 702,-350.22 702,-342.56 702,-342.56 702,-338.72 705.83,-334.89 709.67,-334.89 709.67,-334.89 880.33,-334.89 880.33,-334.89 884.17,-334.89 888,-338.72 888,-342.56 888,-342.56 888,-350.22 888,-350.22 888,-354.06 884.17,-357.89 880.33,-357.89"/>
<text text-anchor="middle" x="795" y="-342.69" font-family="Arial" font-size="14.00" fill="#cfffac">components/ui/TextButton.js</text>
</g>
<!-- pages/UserPage.js&#45;&gt;components/ui/TextButton.js -->
<g id="edge104" class="edge">
<title>pages/UserPage.js&#45;&gt;components/ui/TextButton.js</title>
<path fill="none" stroke="#757575" d="M502.56,-452.73C530.6,-432.97 590.95,-393.02 648,-372.39 661.77,-367.41 676.63,-363.36 691.41,-360.07"/>
<polygon fill="#757575" stroke="#757575" points="692.56,-363.4 701.62,-357.91 691.11,-356.56 692.56,-363.4"/>
</g>
<!-- components/channels/ChannelBadge.js&#45;&gt;components/context/DataContext.js -->
<g id="edge16" class="edge">
<title>components/channels/ChannelBadge.js&#45;&gt;components/context/DataContext.js</title>
<path fill="none" stroke="#757575" d="M828.17,-1749.81C862.75,-1735.52 916.21,-1707.65 942,-1664.39 1032.48,-1512.58 895.12,-1424.48 978,-1268.39 996.47,-1233.6 1033.84,-1206.87 1060.98,-1190.95"/>
<polygon fill="#757575" stroke="#757575" points="1062.78,-1193.96 1069.74,-1185.98 1059.32,-1187.87 1062.78,-1193.96"/>
</g>
<!-- components/channels/ChannelBadge.js&#45;&gt;components/context/FlashContext.js -->
<g id="edge17" class="edge">
<title>components/channels/ChannelBadge.js&#45;&gt;components/context/FlashContext.js</title>
<path fill="none" stroke="#757575" d="M879.31,-1749.82C974.99,-1731.87 1129.13,-1687.75 1210,-1583.39 1345.81,-1408.12 1360.9,-1121.08 1362.39,-1040.21"/>
<polygon fill="#757575" stroke="#757575" points="1365.89,-1040.24 1362.52,-1030.19 1358.89,-1040.15 1365.89,-1040.24"/>
</g>
<!-- components/channels/ChannelBadge.js&#45;&gt;components/context/UiContext.js -->
<g id="edge18" class="edge">
<title>components/channels/ChannelBadge.js&#45;&gt;components/context/UiContext.js</title>
<path fill="none" stroke="#757575" d="M917.82,-1749.85C926.5,-1746.04 934.69,-1741.29 942,-1735.39 974.88,-1708.84 952.05,-1680.74 978,-1647.39 1000.81,-1618.07 1036.24,-1593.99 1061.75,-1579.04"/>
<polygon fill="#757575" stroke="#757575" points="1063.71,-1581.95 1070.66,-1573.95 1060.24,-1575.87 1063.71,-1581.95"/>
</g>
<!-- components/channels/ChannelBadge.js&#45;&gt;utils/axios.js -->
<g id="edge19" class="edge">
<title>components/channels/ChannelBadge.js&#45;&gt;utils/axios.js</title>
<path fill="none" stroke="#757575" d="M828.65,-1749.78C863.38,-1735.53 916.73,-1707.78 942,-1664.39 999.29,-1566.02 941.56,-1261.24 978,-1153.39 999.28,-1090.43 1048.81,-1028.15 1075.39,-997.68"/>
<polygon fill="#757575" stroke="#757575" points="1078.23,-999.76 1082.24,-989.96 1072.99,-995.12 1078.23,-999.76"/>
</g>
<!-- utils/axios.js&#45;&gt;components/context/FlashContext.js -->
<g id="edge106" class="edge">
<title>utils/axios.js&#45;&gt;components/context/FlashContext.js</title>
<path fill="none" stroke="#757575" d="M1138.57,-984.9C1175.54,-990.43 1229.7,-998.53 1275.5,-1005.38"/>
<polygon fill="#757575" stroke="#757575" points="1275.03,-1008.85 1285.44,-1006.87 1276.06,-1001.92 1275.03,-1008.85"/>
</g>
<!-- components/channels/GroupBanner.js&#45;&gt;components/context/DataContext.js -->
<g id="edge20" class="edge">
<title>components/channels/GroupBanner.js&#45;&gt;components/context/DataContext.js</title>
<path fill="none" stroke="#757575" d="M865.91,-1829.79C894.08,-1821.42 924.08,-1807.05 942,-1782.39 1009.3,-1689.76 925.36,-1370.07 978,-1268.39 996.11,-1233.41 1033.54,-1206.71 1060.8,-1190.86"/>
<polygon fill="#757575" stroke="#757575" points="1062.61,-1193.86 1069.61,-1185.91 1059.18,-1187.76 1062.61,-1193.86"/>
</g>
<!-- components/channels/GroupBanner.js&#45;&gt;components/context/FlashContext.js -->
<g id="edge21" class="edge">
<title>components/channels/GroupBanner.js&#45;&gt;components/context/FlashContext.js</title>
<path fill="none" stroke="#757575" d="M832.35,-1852.94C911.67,-1875.65 1101.85,-1916.22 1210,-1822.39 1332.68,-1715.96 1357.87,-1158.33 1361.85,-1040.33"/>
<polygon fill="#757575" stroke="#757575" points="1365.36,-1040.15 1362.18,-1030.04 1358.36,-1039.93 1365.36,-1040.15"/>
</g>
<!-- components/channels/GroupBanner.js&#45;&gt;components/context/UiContext.js -->
<g id="edge22" class="edge">
<title>components/channels/GroupBanner.js&#45;&gt;components/context/UiContext.js</title>
<path fill="none" stroke="#757575" d="M916.36,-1829.81C925.52,-1826.04 934.21,-1821.31 942,-1815.39 971.44,-1793.02 959.93,-1772.65 978,-1740.39 1011.2,-1681.12 1056.33,-1614.75 1078.91,-1582.35"/>
<polygon fill="#757575" stroke="#757575" points="1081.79,-1584.35 1084.66,-1574.15 1076.05,-1580.34 1081.79,-1584.35"/>
</g>
<!-- components/channels/GroupBanner.js&#45;&gt;utils/axios.js -->
<g id="edge24" class="edge">
<title>components/channels/GroupBanner.js&#45;&gt;utils/axios.js</title>
<path fill="none" stroke="#757575" d="M866.44,-1829.78C894.52,-1821.42 924.32,-1807.05 942,-1782.39 1023.57,-1668.6 934.05,-1286.32 978,-1153.39 998.86,-1090.29 1048.57,-1028.07 1075.29,-997.65"/>
<polygon fill="#757575" stroke="#757575" points="1078.13,-999.73 1082.17,-989.94 1072.9,-995.07 1078.13,-999.73"/>
</g>
<!-- components/ui/InviteButton.js -->
<g id="node20" class="node">
<title>components/ui/InviteButton.js</title>
<path fill="none" stroke="#cfffac" d="M1183.33,-1771.89C1183.33,-1771.89 1004.67,-1771.89 1004.67,-1771.89 1000.83,-1771.89 997,-1768.06 997,-1764.22 997,-1764.22 997,-1756.56 997,-1756.56 997,-1752.72 1000.83,-1748.89 1004.67,-1748.89 1004.67,-1748.89 1183.33,-1748.89 1183.33,-1748.89 1187.17,-1748.89 1191,-1752.72 1191,-1756.56 1191,-1756.56 1191,-1764.22 1191,-1764.22 1191,-1768.06 1187.17,-1771.89 1183.33,-1771.89"/>
<text text-anchor="middle" x="1094" y="-1756.69" font-family="Arial" font-size="14.00" fill="#cfffac">components/ui/InviteButton.js</text>
</g>
<!-- components/channels/GroupBanner.js&#45;&gt;components/ui/InviteButton.js -->
<g id="edge23" class="edge">
<title>components/channels/GroupBanner.js&#45;&gt;components/ui/InviteButton.js</title>
<path fill="none" stroke="#757575" d="M902.83,-1829.85C916.41,-1826.24 929.81,-1821.53 942,-1815.39 961.66,-1805.49 958.37,-1791.33 978,-1781.39 982.58,-1779.07 987.38,-1777 992.3,-1775.17"/>
<polygon fill="#757575" stroke="#757575" points="993.57,-1778.43 1001.91,-1771.9 991.32,-1771.8 993.57,-1778.43"/>
</g>
<!-- components/ui/CardFloat.js -->
<g id="node30" class="node">
<title>components/ui/CardFloat.js</title>
<path fill="none" stroke="#cfffac" d="M1177.33,-201.89C1177.33,-201.89 1010.67,-201.89 1010.67,-201.89 1006.83,-201.89 1003,-198.06 1003,-194.22 1003,-194.22 1003,-186.56 1003,-186.56 1003,-182.72 1006.83,-178.89 1010.67,-178.89 1010.67,-178.89 1177.33,-178.89 1177.33,-178.89 1181.17,-178.89 1185,-182.72 1185,-186.56 1185,-186.56 1185,-194.22 1185,-194.22 1185,-198.06 1181.17,-201.89 1177.33,-201.89"/>
<text text-anchor="middle" x="1094" y="-186.69" font-family="Arial" font-size="14.00" fill="#cfffac">components/ui/CardFloat.js</text>
</g>
<!-- components/forms/JoinByInvite.js&#45;&gt;components/ui/CardFloat.js -->
<g id="edge30" class="edge">
<title>components/forms/JoinByInvite.js&#45;&gt;components/ui/CardFloat.js</title>
<path fill="none" stroke="#757575" d="M880.54,-160.94C900.68,-163.7 922.11,-166.64 942,-169.39 960.87,-171.99 981.06,-174.79 1000.34,-177.47"/>
<polygon fill="#757575" stroke="#757575" points="999.94,-180.95 1010.32,-178.86 1000.9,-174.02 999.94,-180.95"/>
</g>
<!-- components/forms/JoinByInvite.js&#45;&gt;components/ui/CircleButton.js -->
<g id="edge31" class="edge">
<title>components/forms/JoinByInvite.js&#45;&gt;components/ui/CircleButton.js</title>
<path fill="none" stroke="#757575" d="M904.82,-155.44C917.8,-158.7 930.51,-163.21 942,-169.39 963.36,-180.87 960.73,-193.37 978,-210.39 1008.12,-240.07 1045.91,-271.23 1069.76,-290.24"/>
<polygon fill="#757575" stroke="#757575" points="1067.87,-293.2 1077.88,-296.66 1072.21,-287.71 1067.87,-293.2"/>
</g>
<!-- components/forms/NewChannelForm.js&#45;&gt;components/context/UiContext.js -->
<g id="edge32" class="edge">
<title>components/forms/NewChannelForm.js&#45;&gt;components/context/UiContext.js</title>
<path fill="none" stroke="#757575" d="M923.12,-469.58C930.11,-473.45 936.51,-478.32 942,-484.39 1018.04,-568.52 916.85,-1408.88 978,-1504.39 991.13,-1524.89 1013.89,-1538.45 1035.72,-1547.26"/>
<polygon fill="#757575" stroke="#757575" points="1034.73,-1550.62 1045.32,-1550.86 1037.19,-1544.07 1034.73,-1550.62"/>
</g>
<!-- components/forms/NewChannelForm.js&#45;&gt;components/ui/CardFloat.js -->
<g id="edge33" class="edge">
<title>components/forms/NewChannelForm.js&#45;&gt;components/ui/CardFloat.js</title>
<path fill="none" stroke="#757575" d="M821.31,-452.86C853.17,-437.26 907.83,-406.66 942,-366.39 966.96,-336.97 954.68,-318.13 978,-287.39 1002.85,-254.62 1040.63,-225.47 1066.04,-207.88"/>
<polygon fill="#757575" stroke="#757575" points="1068.16,-210.67 1074.47,-202.16 1064.23,-204.88 1068.16,-210.67"/>
</g>
<!-- components/forms/NewChannelForm.js&#45;&gt;components/ui/CircleButton.js -->
<g id="edge34" class="edge">
<title>components/forms/NewChannelForm.js&#45;&gt;components/ui/CircleButton.js</title>
<path fill="none" stroke="#757575" d="M818.32,-452.66C870.7,-425.15 1001.57,-356.41 1061.79,-324.78"/>
<polygon fill="#757575" stroke="#757575" points="1063.6,-327.79 1070.82,-320.04 1060.34,-321.59 1063.6,-327.79"/>
</g>
<!-- components/forms/NewGroupForm.js&#45;&gt;components/ui/CardFloat.js -->
<g id="edge35" class="edge">
<title>components/forms/NewGroupForm.js&#45;&gt;components/ui/CardFloat.js</title>
<path fill="none" stroke="#757575" d="M917.23,-190.39C942.21,-190.39 968.26,-190.39 992.41,-190.39"/>
<polygon fill="#757575" stroke="#757575" points="992.64,-193.89 1002.64,-190.39 992.64,-186.89 992.64,-193.89"/>
</g>
<!-- components/forms/NewGroupForm.js&#45;&gt;components/ui/CircleButton.js -->
<g id="edge36" class="edge">
<title>components/forms/NewGroupForm.js&#45;&gt;components/ui/CircleButton.js</title>
<path fill="none" stroke="#757575" d="M890.46,-201.92C907.91,-205.52 925.75,-210.24 942,-216.39 990.92,-234.9 1041.6,-269.52 1070.04,-290.61"/>
<polygon fill="#757575" stroke="#757575" points="1068.03,-293.47 1078.12,-296.69 1072.23,-287.88 1068.03,-293.47"/>
</g>
<!-- components/groups/GroupBadge.js -->
<g id="node34" class="node">
<title>components/groups/GroupBadge.js</title>
<path fill="none" stroke="#cfffac" d="M1201.33,-1415.89C1201.33,-1415.89 986.67,-1415.89 986.67,-1415.89 982.83,-1415.89 979,-1412.06 979,-1408.22 979,-1408.22 979,-1400.56 979,-1400.56 979,-1396.72 982.83,-1392.89 986.67,-1392.89 986.67,-1392.89 1201.33,-1392.89 1201.33,-1392.89 1205.17,-1392.89 1209,-1396.72 1209,-1400.56 1209,-1400.56 1209,-1408.22 1209,-1408.22 1209,-1412.06 1205.17,-1415.89 1201.33,-1415.89"/>
<text text-anchor="middle" x="1094" y="-1400.69" font-family="Arial" font-size="14.00" fill="#cfffac">components/groups/GroupBadge.js</text>
</g>
<!-- components/groups/Logo.js -->
<g id="node35" class="node">
<title>components/groups/Logo.js</title>
<path fill="none" stroke="#cfffac" d="M878.83,-875.89C878.83,-875.89 711.17,-875.89 711.17,-875.89 707.33,-875.89 703.5,-872.06 703.5,-868.22 703.5,-868.22 703.5,-860.56 703.5,-860.56 703.5,-856.72 707.33,-852.89 711.17,-852.89 711.17,-852.89 878.83,-852.89 878.83,-852.89 882.67,-852.89 886.5,-856.72 886.5,-860.56 886.5,-860.56 886.5,-868.22 886.5,-868.22 886.5,-872.06 882.67,-875.89 878.83,-875.89"/>
<text text-anchor="middle" x="795" y="-860.69" font-family="Arial" font-size="14.00" fill="#cfffac">components/groups/Logo.js</text>
</g>
<!-- components/groups/NewGroupButton.js -->
<g id="node36" class="node">
<title>components/groups/NewGroupButton.js</title>
<path fill="none" stroke="#cfffac" d="M915.83,-834.89C915.83,-834.89 674.17,-834.89 674.17,-834.89 670.33,-834.89 666.5,-831.06 666.5,-827.22 666.5,-827.22 666.5,-819.56 666.5,-819.56 666.5,-815.72 670.33,-811.89 674.17,-811.89 674.17,-811.89 915.83,-811.89 915.83,-811.89 919.67,-811.89 923.5,-815.72 923.5,-819.56 923.5,-819.56 923.5,-827.22 923.5,-827.22 923.5,-831.06 919.67,-834.89 915.83,-834.89"/>
<text text-anchor="middle" x="795" y="-819.69" font-family="Arial" font-size="14.00" fill="#cfffac">components/groups/NewGroupButton.js</text>
</g>
<!-- components/groups/UserBadge.js -->
<g id="node37" class="node">
<title>components/groups/UserBadge.js</title>
<path fill="none" stroke="#cfffac" d="M897.83,-793.89C897.83,-793.89 692.17,-793.89 692.17,-793.89 688.33,-793.89 684.5,-790.06 684.5,-786.22 684.5,-786.22 684.5,-778.56 684.5,-778.56 684.5,-774.72 688.33,-770.89 692.17,-770.89 692.17,-770.89 897.83,-770.89 897.83,-770.89 901.67,-770.89 905.5,-774.72 905.5,-778.56 905.5,-778.56 905.5,-786.22 905.5,-786.22 905.5,-790.06 901.67,-793.89 897.83,-793.89"/>
<text text-anchor="middle" x="795" y="-778.69" font-family="Arial" font-size="14.00" fill="#cfffac">components/groups/UserBadge.js</text>
</g>
<!-- utils/socket.js&#45;&gt;components/context/DataContext.js -->
<g id="edge113" class="edge">
<title>utils/socket.js&#45;&gt;components/context/DataContext.js</title>
<path fill="none" stroke="#757575" d="M534.09,-1239.82C630.5,-1228.53 851.03,-1202.71 984.45,-1187.1"/>
<polygon fill="#757575" stroke="#757575" points="985.17,-1190.54 994.7,-1185.9 984.36,-1183.58 985.17,-1190.54"/>
</g>
<!-- utils/socket.js&#45;&gt;components/context/SocketContext.js -->
<g id="edge114" class="edge">
<title>utils/socket.js&#45;&gt;components/context/SocketContext.js</title>
<path fill="none" stroke="#757575" d="M518.54,-1233.82C574.61,-1213.58 690.45,-1171.77 752.55,-1149.35"/>
<polygon fill="#757575" stroke="#757575" points="753.82,-1152.62 762.03,-1145.93 751.44,-1146.03 753.82,-1152.62"/>
</g>
<!-- components/layout/GroupsBar.js&#45;&gt;components/context/DataContext.js -->
<g id="edge54" class="edge">
<title>components/layout/GroupsBar.js&#45;&gt;components/context/DataContext.js</title>
<path fill="none" stroke="#757575" d="M577.29,-873.94C589.07,-876.29 600.9,-879.08 612,-882.39 766.04,-928.32 808.58,-940.74 942,-1030.39 996.97,-1067.32 1050.43,-1124.94 1076.51,-1154.87"/>
<polygon fill="#757575" stroke="#757575" points="1073.94,-1157.24 1083.12,-1162.53 1079.24,-1152.67 1073.94,-1157.24"/>
</g>
<!-- components/layout/GroupsBar.js&#45;&gt;components/groups/Logo.js -->
<g id="edge55" class="edge">
<title>components/layout/GroupsBar.js&#45;&gt;components/groups/Logo.js</title>
<path fill="none" stroke="#757575" d="M592.32,-863.08C624.93,-863.29 660.73,-863.52 693.01,-863.73"/>
<polygon fill="#757575" stroke="#757575" points="693.33,-867.23 703.35,-863.8 693.37,-860.23 693.33,-867.23"/>
</g>
<!-- components/layout/GroupsBar.js&#45;&gt;components/groups/NewGroupButton.js -->
<g id="edge56" class="edge">
<title>components/layout/GroupsBar.js&#45;&gt;components/groups/NewGroupButton.js</title>
<path fill="none" stroke="#757575" d="M577.51,-850.85C613.77,-846.25 655.65,-840.94 692.86,-836.22"/>
<polygon fill="#757575" stroke="#757575" points="693.74,-839.63 703.22,-834.9 692.86,-832.69 693.74,-839.63"/>
</g>
<!-- components/layout/GroupsBar.js&#45;&gt;components/groups/UserBadge.js -->
<g id="edge57" class="edge">
<title>components/layout/GroupsBar.js&#45;&gt;components/groups/UserBadge.js</title>
<path fill="none" stroke="#757575" d="M512.23,-850.82C543.65,-837.16 598.68,-814.77 648,-802.39 657.97,-799.89 668.4,-797.68 678.91,-795.73"/>
<polygon fill="#757575" stroke="#757575" points="679.76,-799.14 688.99,-793.94 678.53,-792.24 679.76,-799.14"/>
</g>
<!-- components/layout/GroupsBar.js&#45;&gt;components/ui/SkeletonLoaders.js -->
<g id="edge58" class="edge">
<title>components/layout/GroupsBar.js&#45;&gt;components/ui/SkeletonLoaders.js</title>
<path fill="none" stroke="#757575" d="M592.02,-867.5C599.5,-871.22 606.31,-876.08 612,-882.39 710.49,-991.66 562.46,-1423.71 648,-1543.39 663.65,-1565.28 688.84,-1579.06 713.94,-1587.73"/>
<polygon fill="#757575" stroke="#757575" points="712.94,-1591.08 723.53,-1590.81 715.07,-1584.42 712.94,-1591.08"/>
</g>
<!-- utils/iterableComponents.js -->
<g id="node42" class="node">
<title>utils/iterableComponents.js</title>
<path fill="none" stroke="#c6c5fe" d="M876.83,-1415.89C876.83,-1415.89 713.17,-1415.89 713.17,-1415.89 709.33,-1415.89 705.5,-1412.06 705.5,-1408.22 705.5,-1408.22 705.5,-1400.56 705.5,-1400.56 705.5,-1396.72 709.33,-1392.89 713.17,-1392.89 713.17,-1392.89 876.83,-1392.89 876.83,-1392.89 880.67,-1392.89 884.5,-1396.72 884.5,-1400.56 884.5,-1400.56 884.5,-1408.22 884.5,-1408.22 884.5,-1412.06 880.67,-1415.89 876.83,-1415.89"/>
<text text-anchor="middle" x="795" y="-1400.69" font-family="Arial" font-size="14.00" fill="#c6c5fe">utils/iterableComponents.js</text>
</g>
<!-- components/layout/GroupsBar.js&#45;&gt;utils/iterableComponents.js -->
<g id="edge59" class="edge">
<title>components/layout/GroupsBar.js&#45;&gt;utils/iterableComponents.js</title>
<path fill="none" stroke="#757575" d="M592.09,-868.27C599.45,-871.84 606.23,-876.46 612,-882.39 654.54,-926.07 628.24,-1096.71 648,-1154.39 679.87,-1247.42 748.3,-1344.27 778.8,-1384.77"/>
<polygon fill="#757575" stroke="#757575" points="776.03,-1386.91 784.87,-1392.75 781.6,-1382.67 776.03,-1386.91"/>
</g>
<!-- utils/iterableComponents.js&#45;&gt;components/context/DataContext.js -->
<g id="edge109" class="edge">
<title>utils/iterableComponents.js&#45;&gt;components/context/DataContext.js</title>
<path fill="none" stroke="#757575" d="M884.57,-1403.87C905.36,-1399.88 926.06,-1392.24 942,-1378.39 980.83,-1344.65 948.92,-1310.82 978,-1268.39 1000.56,-1235.47 1037.87,-1208 1063.85,-1191.42"/>
<polygon fill="#757575" stroke="#757575" points="1065.89,-1194.28 1072.53,-1186.02 1062.19,-1188.34 1065.89,-1194.28"/>
</g>
<!-- utils/iterableComponents.js&#45;&gt;components/context/UiContext.js -->
<g id="edge110" class="edge">
<title>utils/iterableComponents.js&#45;&gt;components/context/UiContext.js</title>
<path fill="none" stroke="#757575" d="M884.84,-1406.75C905.15,-1410.78 925.57,-1417.97 942,-1430.39 971.18,-1452.44 952.32,-1478.34 978,-1504.39 997.02,-1523.69 1023.81,-1537.71 1046.74,-1547.13"/>
<polygon fill="#757575" stroke="#757575" points="1045.71,-1550.49 1056.3,-1550.89 1048.27,-1543.97 1045.71,-1550.49"/>
</g>
<!-- utils/iterableComponents.js&#45;&gt;components/chat/Message.js -->
<g id="edge107" class="edge">
<title>utils/iterableComponents.js&#45;&gt;components/chat/Message.js</title>
<path fill="none" stroke="#757575" d="M826.94,-1415.97C861.22,-1430.54 915.18,-1459.03 942,-1502.39 1007.77,-1608.72 891.55,-1691.06 978,-1781.39 981.11,-1784.64 984.55,-1787.48 988.24,-1789.95"/>
<polygon fill="#757575" stroke="#757575" points="986.82,-1793.17 997.24,-1795.08 990.28,-1787.09 986.82,-1793.17"/>
</g>
<!-- utils/iterableComponents.js&#45;&gt;components/chat/SenderWrapper.js -->
<g id="edge108" class="edge">
<title>utils/iterableComponents.js&#45;&gt;components/chat/SenderWrapper.js</title>
<path fill="none" stroke="#757575" d="M874.17,-1415.91C896.26,-1419.82 920.21,-1424.67 942,-1430.39 981.28,-1440.71 1024.94,-1456.52 1055.16,-1468.19"/>
<polygon fill="#757575" stroke="#757575" points="1053.89,-1471.46 1064.48,-1471.82 1056.44,-1464.93 1053.89,-1471.46"/>
</g>
<!-- utils/iterableComponents.js&#45;&gt;utils/localFallback.js -->
<g id="edge112" class="edge">
<title>utils/iterableComponents.js&#45;&gt;utils/localFallback.js</title>
<path fill="none" stroke="#757575" d="M884.59,-1393.83C903.86,-1390.1 923.89,-1385.09 942,-1378.39 990.36,-1360.49 1040.87,-1327.29 1069.48,-1306.89"/>
<polygon fill="#757575" stroke="#757575" points="1071.58,-1309.69 1077.64,-1301 1067.48,-1304.02 1071.58,-1309.69"/>
</g>
<!-- utils/iterableComponents.js&#45;&gt;components/groups/GroupBadge.js -->
<g id="edge111" class="edge">
<title>utils/iterableComponents.js&#45;&gt;components/groups/GroupBadge.js</title>
<path fill="none" stroke="#757575" d="M884.71,-1404.39C911.04,-1404.39 940.39,-1404.39 968.56,-1404.39"/>
<polygon fill="#757575" stroke="#757575" points="968.87,-1407.89 978.87,-1404.39 968.87,-1400.89 968.87,-1407.89"/>
</g>
<!-- components/ui/Modal.js&#45;&gt;components/ui/Dots.js -->
<g id="edge60" class="edge">
<title>components/ui/Modal.js&#45;&gt;components/ui/Dots.js</title>
<path fill="none" stroke="#757575" d="M875.03,-504.45C897.96,-507.19 922.15,-513.23 942,-525.39 962.13,-537.72 1047.4,-670.33 1080.13,-721.97"/>
<polygon fill="#757575" stroke="#757575" points="1077.3,-724.05 1085.61,-730.63 1083.22,-720.3 1077.3,-724.05"/>
</g>
<!-- components/ui/Modal.js&#45;&gt;components/ui/InputBox.js -->
<g id="edge61" class="edge">
<title>components/ui/Modal.js&#45;&gt;components/ui/InputBox.js</title>
<path fill="none" stroke="#757575" d="M875.2,-516.06C912.74,-521.11 957.91,-527.19 997.35,-532.51"/>
<polygon fill="#757575" stroke="#757575" points="997.13,-536.01 1007.51,-533.87 998.07,-529.07 997.13,-536.01"/>
</g>
</g>
</svg>
